<mxfile host="Electron" agent="Mozilla/5.0 (Windows NT 10.0; Win64; x64) AppleWebKit/537.36 (KHTML, like Gecko) draw.io/27.0.9 Chrome/134.0.6998.205 Electron/35.4.0 Safari/537.36" version="27.0.9">
  <diagram name="Page-1" id="9f46799a-70d6-7492-0946-bef42562c5a5">
    <mxGraphModel dx="3363" dy="1566" grid="1" gridSize="10" guides="1" tooltips="1" connect="1" arrows="1" fold="1" page="1" pageScale="1" pageWidth="1100" pageHeight="850" background="none" math="0" shadow="0">
      <root>
        <mxCell id="0" />
        <mxCell id="1" parent="0" />
        <mxCell id="d5mb9EzyclGPVEoklJ2P-3695" value="&lt;b&gt;&lt;font style=&quot;font-size: 18px;&quot;&gt;User&lt;/font&gt;&lt;/b&gt;" style="rounded=0;whiteSpace=wrap;html=1;" parent="1" vertex="1">
          <mxGeometry x="480" y="850" width="120" height="60" as="geometry" />
        </mxCell>
        <mxCell id="d5mb9EzyclGPVEoklJ2P-3696" value="&lt;b&gt;&lt;font style=&quot;font-size: 18px;&quot;&gt;Notification&lt;/font&gt;&lt;/b&gt;" style="rounded=0;whiteSpace=wrap;html=1;" parent="1" vertex="1">
          <mxGeometry x="30" y="1160" width="120" height="60" as="geometry" />
        </mxCell>
        <mxCell id="d5mb9EzyclGPVEoklJ2P-3697" value="&lt;b&gt;&lt;font style=&quot;font-size: 18px;&quot;&gt;Driver&lt;/font&gt;&lt;/b&gt;" style="rounded=0;whiteSpace=wrap;html=1;" parent="1" vertex="1">
          <mxGeometry x="-400" y="500" width="120" height="60" as="geometry" />
        </mxCell>
        <mxCell id="d5mb9EzyclGPVEoklJ2P-3698" value="&lt;b&gt;&lt;font style=&quot;font-size: 18px;&quot;&gt;AdminUser&lt;/font&gt;&lt;/b&gt;" style="rounded=0;whiteSpace=wrap;html=1;" parent="1" vertex="1">
          <mxGeometry x="910" y="1160" width="120" height="60" as="geometry" />
        </mxCell>
        <mxCell id="d5mb9EzyclGPVEoklJ2P-3699" value="&lt;b&gt;&lt;font style=&quot;font-size: 18px;&quot;&gt;Rating&lt;/font&gt;&lt;/b&gt;" style="rounded=0;whiteSpace=wrap;html=1;" parent="1" vertex="1">
          <mxGeometry x="510" y="410" width="120" height="60" as="geometry" />
        </mxCell>
        <mxCell id="d5mb9EzyclGPVEoklJ2P-3700" value="&lt;b&gt;&lt;font style=&quot;font-size: 18px;&quot;&gt;Merchant&lt;/font&gt;&lt;/b&gt;" style="rounded=0;whiteSpace=wrap;html=1;" parent="1" vertex="1">
          <mxGeometry x="1340" y="510" width="120" height="60" as="geometry" />
        </mxCell>
        <mxCell id="d5mb9EzyclGPVEoklJ2P-3701" value="&lt;b&gt;&lt;font style=&quot;font-size: 18px;&quot;&gt;Order&lt;/font&gt;&lt;/b&gt;" style="rounded=0;whiteSpace=wrap;html=1;" parent="1" vertex="1">
          <mxGeometry x="510" y="130" width="120" height="60" as="geometry" />
        </mxCell>
        <mxCell id="d5mb9EzyclGPVEoklJ2P-3702" value="" style="endArrow=none;html=1;rounded=0;entryX=0.5;entryY=0;entryDx=0;entryDy=0;exitX=0.5;exitY=1;exitDx=0;exitDy=0;shape=link;" parent="1" source="d5mb9EzyclGPVEoklJ2P-3703" target="d5mb9EzyclGPVEoklJ2P-3700" edge="1">
          <mxGeometry width="50" height="50" relative="1" as="geometry">
            <mxPoint x="900" y="610" as="sourcePoint" />
            <mxPoint x="920" y="550" as="targetPoint" />
          </mxGeometry>
        </mxCell>
        <mxCell id="d5mb9EzyclGPVEoklJ2P-3703" value="&lt;b&gt;&lt;font style=&quot;font-size: 14px;&quot;&gt;places&lt;/font&gt;&lt;/b&gt;" style="rhombus;whiteSpace=wrap;html=1;" parent="1" vertex="1">
          <mxGeometry x="1370" y="130" width="60" height="60" as="geometry" />
        </mxCell>
        <mxCell id="d5mb9EzyclGPVEoklJ2P-3704" value="" style="endArrow=none;html=1;rounded=0;entryX=0;entryY=0.5;entryDx=0;entryDy=0;exitX=1;exitY=0.5;exitDx=0;exitDy=0;" parent="1" source="d5mb9EzyclGPVEoklJ2P-3701" target="d5mb9EzyclGPVEoklJ2P-3703" edge="1">
          <mxGeometry width="50" height="50" relative="1" as="geometry">
            <mxPoint x="580" y="550" as="sourcePoint" />
            <mxPoint x="670" y="590" as="targetPoint" />
          </mxGeometry>
        </mxCell>
        <mxCell id="d5mb9EzyclGPVEoklJ2P-3705" value="&lt;b&gt;&lt;font style=&quot;font-size: 14px;&quot;&gt;is&lt;/font&gt;&lt;/b&gt;" style="rhombus;whiteSpace=wrap;html=1;" parent="1" vertex="1">
          <mxGeometry x="1370" y="810" width="60" height="60" as="geometry" />
        </mxCell>
        <mxCell id="d5mb9EzyclGPVEoklJ2P-3706" value="" style="endArrow=none;html=1;rounded=0;entryX=0;entryY=0.5;entryDx=0;entryDy=0;exitX=1;exitY=0.5;exitDx=0;exitDy=0;" parent="1" source="d5mb9EzyclGPVEoklJ2P-3695" target="d5mb9EzyclGPVEoklJ2P-3705" edge="1">
          <mxGeometry width="50" height="50" relative="1" as="geometry">
            <mxPoint x="635" y="740" as="sourcePoint" />
            <mxPoint x="745" y="810" as="targetPoint" />
          </mxGeometry>
        </mxCell>
        <mxCell id="d5mb9EzyclGPVEoklJ2P-3707" value="&lt;b&gt;1&lt;/b&gt;" style="edgeLabel;html=1;align=center;verticalAlign=middle;resizable=0;points=[];" parent="d5mb9EzyclGPVEoklJ2P-3706" vertex="1" connectable="0">
          <mxGeometry x="-0.554" y="3" relative="1" as="geometry">
            <mxPoint x="469" y="-198" as="offset" />
          </mxGeometry>
        </mxCell>
        <mxCell id="d5mb9EzyclGPVEoklJ2P-3708" value="" style="endArrow=none;html=1;rounded=0;entryX=0.5;entryY=1;entryDx=0;entryDy=0;exitX=0.5;exitY=0;exitDx=0;exitDy=0;shape=link;" parent="1" source="d5mb9EzyclGPVEoklJ2P-3705" target="d5mb9EzyclGPVEoklJ2P-3700" edge="1">
          <mxGeometry width="50" height="50" relative="1" as="geometry">
            <mxPoint x="800" y="800" as="sourcePoint" />
            <mxPoint x="890" y="760" as="targetPoint" />
          </mxGeometry>
        </mxCell>
        <mxCell id="d5mb9EzyclGPVEoklJ2P-3709" value="&lt;b&gt;1&lt;/b&gt;" style="edgeLabel;html=1;align=center;verticalAlign=middle;resizable=0;points=[];" parent="d5mb9EzyclGPVEoklJ2P-3708" vertex="1" connectable="0">
          <mxGeometry x="0.6451" y="-3" relative="1" as="geometry">
            <mxPoint x="-3" y="177" as="offset" />
          </mxGeometry>
        </mxCell>
        <mxCell id="d5mb9EzyclGPVEoklJ2P-3710" value="&lt;b&gt;1&lt;/b&gt;" style="edgeLabel;html=1;align=center;verticalAlign=middle;resizable=0;points=[];" parent="1" vertex="1" connectable="0">
          <mxGeometry x="1380" y="200" as="geometry">
            <mxPoint x="17" y="8" as="offset" />
          </mxGeometry>
        </mxCell>
        <mxCell id="d5mb9EzyclGPVEoklJ2P-3711" value="&lt;b&gt;N&lt;/b&gt;" style="edgeLabel;html=1;align=center;verticalAlign=middle;resizable=0;points=[];" parent="1" vertex="1" connectable="0">
          <mxGeometry x="1330" y="150" as="geometry">
            <mxPoint x="8" y="12" as="offset" />
          </mxGeometry>
        </mxCell>
        <mxCell id="d5mb9EzyclGPVEoklJ2P-3712" value="&lt;b&gt;&lt;font style=&quot;font-size: 14px;&quot;&gt;is&lt;/font&gt;&lt;/b&gt;" style="rhombus;whiteSpace=wrap;html=1;" parent="1" vertex="1">
          <mxGeometry x="-370" y="820" width="60" height="60" as="geometry" />
        </mxCell>
        <mxCell id="d5mb9EzyclGPVEoklJ2P-3713" value="" style="endArrow=none;html=1;rounded=0;exitX=0.5;exitY=1;exitDx=0;exitDy=0;entryX=0.5;entryY=0;entryDx=0;entryDy=0;shape=link;" parent="1" source="d5mb9EzyclGPVEoklJ2P-3697" target="d5mb9EzyclGPVEoklJ2P-3712" edge="1">
          <mxGeometry width="50" height="50" relative="1" as="geometry">
            <mxPoint x="230" y="660" as="sourcePoint" />
            <mxPoint x="380" y="660" as="targetPoint" />
          </mxGeometry>
        </mxCell>
        <mxCell id="d5mb9EzyclGPVEoklJ2P-3714" value="&lt;b&gt;1&lt;/b&gt;" style="edgeLabel;html=1;align=center;verticalAlign=middle;resizable=0;points=[];" parent="d5mb9EzyclGPVEoklJ2P-3713" vertex="1" connectable="0">
          <mxGeometry x="-0.5632" y="-1" relative="1" as="geometry">
            <mxPoint x="1" y="183" as="offset" />
          </mxGeometry>
        </mxCell>
        <mxCell id="d5mb9EzyclGPVEoklJ2P-3715" value="" style="endArrow=none;html=1;rounded=0;entryX=0;entryY=0.5;entryDx=0;entryDy=0;exitX=1;exitY=0.5;exitDx=0;exitDy=0;" parent="1" source="d5mb9EzyclGPVEoklJ2P-3712" target="d5mb9EzyclGPVEoklJ2P-3695" edge="1">
          <mxGeometry width="50" height="50" relative="1" as="geometry">
            <mxPoint x="380" y="830" as="sourcePoint" />
            <mxPoint x="470" y="870" as="targetPoint" />
          </mxGeometry>
        </mxCell>
        <mxCell id="d5mb9EzyclGPVEoklJ2P-3716" value="&lt;b&gt;1&lt;/b&gt;" style="edgeLabel;html=1;align=center;verticalAlign=middle;resizable=0;points=[];" parent="d5mb9EzyclGPVEoklJ2P-3715" vertex="1" connectable="0">
          <mxGeometry x="0.6867" y="-1" relative="1" as="geometry">
            <mxPoint x="-646" y="-26" as="offset" />
          </mxGeometry>
        </mxCell>
        <mxCell id="d5mb9EzyclGPVEoklJ2P-3717" value="&lt;span style=&quot;font-size: 14px;&quot;&gt;&lt;b&gt;is&lt;/b&gt;&lt;/span&gt;" style="rhombus;whiteSpace=wrap;html=1;" parent="1" vertex="1">
          <mxGeometry x="940" y="880" width="60" height="60" as="geometry" />
        </mxCell>
        <mxCell id="d5mb9EzyclGPVEoklJ2P-3718" value="" style="endArrow=none;html=1;rounded=0;entryX=0.5;entryY=0;entryDx=0;entryDy=0;exitX=0.5;exitY=1;exitDx=0;exitDy=0;shape=link;" parent="1" source="d5mb9EzyclGPVEoklJ2P-3717" target="d5mb9EzyclGPVEoklJ2P-3698" edge="1">
          <mxGeometry width="50" height="50" relative="1" as="geometry">
            <mxPoint x="775" y="1140" as="sourcePoint" />
            <mxPoint x="875" y="1190" as="targetPoint" />
          </mxGeometry>
        </mxCell>
        <mxCell id="d5mb9EzyclGPVEoklJ2P-3719" value="&lt;b&gt;1&lt;/b&gt;" style="edgeLabel;html=1;align=center;verticalAlign=middle;resizable=0;points=[];" parent="d5mb9EzyclGPVEoklJ2P-3718" vertex="1" connectable="0">
          <mxGeometry x="0.6867" y="-1" relative="1" as="geometry">
            <mxPoint x="381" y="-286" as="offset" />
          </mxGeometry>
        </mxCell>
        <mxCell id="d5mb9EzyclGPVEoklJ2P-3720" value="" style="endArrow=none;html=1;rounded=0;entryX=0;entryY=0.5;entryDx=0;entryDy=0;exitX=1;exitY=0.5;exitDx=0;exitDy=0;" parent="1" source="d5mb9EzyclGPVEoklJ2P-3695" target="d5mb9EzyclGPVEoklJ2P-3717" edge="1">
          <mxGeometry width="50" height="50" relative="1" as="geometry">
            <mxPoint x="540" y="920" as="sourcePoint" />
            <mxPoint x="787.6300000000001" y="989.9999999999998" as="targetPoint" />
          </mxGeometry>
        </mxCell>
        <mxCell id="d5mb9EzyclGPVEoklJ2P-3721" value="&lt;b&gt;1&lt;/b&gt;" style="edgeLabel;html=1;align=center;verticalAlign=middle;resizable=0;points=[];" parent="d5mb9EzyclGPVEoklJ2P-3720" vertex="1" connectable="0">
          <mxGeometry x="-0.5632" y="-1" relative="1" as="geometry">
            <mxPoint x="246" y="22" as="offset" />
          </mxGeometry>
        </mxCell>
        <mxCell id="d5mb9EzyclGPVEoklJ2P-3722" value="&lt;b&gt;&lt;font style=&quot;font-size: 14px;&quot;&gt;Receives&lt;/font&gt;&lt;/b&gt;" style="rhombus;whiteSpace=wrap;html=1;" parent="1" vertex="1">
          <mxGeometry x="55" y="880" width="70" height="70" as="geometry" />
        </mxCell>
        <mxCell id="d5mb9EzyclGPVEoklJ2P-3723" value="" style="endArrow=none;html=1;rounded=0;exitX=1;exitY=0.5;exitDx=0;exitDy=0;entryX=0;entryY=0.5;entryDx=0;entryDy=0;shape=link;" parent="1" source="d5mb9EzyclGPVEoklJ2P-3722" target="d5mb9EzyclGPVEoklJ2P-3695" edge="1">
          <mxGeometry width="50" height="50" relative="1" as="geometry">
            <mxPoint x="460" y="985" as="sourcePoint" />
            <mxPoint x="540" y="920" as="targetPoint" />
          </mxGeometry>
        </mxCell>
        <mxCell id="d5mb9EzyclGPVEoklJ2P-3724" value="&lt;b&gt;1&lt;/b&gt;" style="edgeLabel;html=1;align=center;verticalAlign=middle;resizable=0;points=[];" parent="d5mb9EzyclGPVEoklJ2P-3723" vertex="1" connectable="0">
          <mxGeometry x="0.6451" y="-3" relative="1" as="geometry">
            <mxPoint x="-278" y="22" as="offset" />
          </mxGeometry>
        </mxCell>
        <mxCell id="d5mb9EzyclGPVEoklJ2P-3725" value="" style="endArrow=none;html=1;rounded=0;exitX=0.5;exitY=0;exitDx=0;exitDy=0;entryX=0.5;entryY=1;entryDx=0;entryDy=0;" parent="1" source="d5mb9EzyclGPVEoklJ2P-3696" target="d5mb9EzyclGPVEoklJ2P-3722" edge="1">
          <mxGeometry width="50" height="50" relative="1" as="geometry">
            <mxPoint x="340" y="920" as="sourcePoint" />
            <mxPoint x="370" y="860" as="targetPoint" />
          </mxGeometry>
        </mxCell>
        <mxCell id="d5mb9EzyclGPVEoklJ2P-3726" value="&lt;b&gt;N&lt;/b&gt;" style="edgeLabel;html=1;align=center;verticalAlign=middle;resizable=0;points=[];" parent="d5mb9EzyclGPVEoklJ2P-3725" vertex="1" connectable="0">
          <mxGeometry x="-0.554" y="3" relative="1" as="geometry">
            <mxPoint x="3" y="-152" as="offset" />
          </mxGeometry>
        </mxCell>
        <mxCell id="d5mb9EzyclGPVEoklJ2P-3727" value="&lt;b&gt;&lt;font style=&quot;font-size: 14px;&quot;&gt;Delivers&lt;/font&gt;&lt;/b&gt;" style="rhombus;whiteSpace=wrap;html=1;" parent="1" vertex="1">
          <mxGeometry x="-375" y="125" width="70" height="65" as="geometry" />
        </mxCell>
        <mxCell id="d5mb9EzyclGPVEoklJ2P-3728" value="" style="endArrow=none;html=1;rounded=0;entryX=0;entryY=0.5;entryDx=0;entryDy=0;exitX=1;exitY=0.5;exitDx=0;exitDy=0;" parent="1" source="d5mb9EzyclGPVEoklJ2P-3727" target="d5mb9EzyclGPVEoklJ2P-3701" edge="1">
          <mxGeometry width="50" height="50" relative="1" as="geometry">
            <mxPoint x="420" y="563" as="sourcePoint" />
            <mxPoint x="500" y="488" as="targetPoint" />
          </mxGeometry>
        </mxCell>
        <mxCell id="d5mb9EzyclGPVEoklJ2P-3729" value="&lt;b&gt;N&lt;/b&gt;" style="edgeLabel;html=1;align=center;verticalAlign=middle;resizable=0;points=[];" parent="d5mb9EzyclGPVEoklJ2P-3728" vertex="1" connectable="0">
          <mxGeometry x="0.6451" y="-3" relative="1" as="geometry">
            <mxPoint x="-650" y="-5" as="offset" />
          </mxGeometry>
        </mxCell>
        <mxCell id="d5mb9EzyclGPVEoklJ2P-3730" value="" style="endArrow=none;html=1;rounded=0;entryX=0.5;entryY=1;entryDx=0;entryDy=0;exitX=0.5;exitY=0;exitDx=0;exitDy=0;" parent="1" source="d5mb9EzyclGPVEoklJ2P-3697" target="d5mb9EzyclGPVEoklJ2P-3727" edge="1">
          <mxGeometry width="50" height="50" relative="1" as="geometry">
            <mxPoint x="-200" y="575" as="sourcePoint" />
            <mxPoint x="-140" y="525" as="targetPoint" />
          </mxGeometry>
        </mxCell>
        <mxCell id="d5mb9EzyclGPVEoklJ2P-3731" value="&lt;b&gt;1&lt;/b&gt;" style="edgeLabel;html=1;align=center;verticalAlign=middle;resizable=0;points=[];" parent="d5mb9EzyclGPVEoklJ2P-3730" vertex="1" connectable="0">
          <mxGeometry x="-0.554" y="3" relative="1" as="geometry">
            <mxPoint x="3" y="-221" as="offset" />
          </mxGeometry>
        </mxCell>
        <mxCell id="d5mb9EzyclGPVEoklJ2P-3732" value="&lt;span style=&quot;font-size: 14px;&quot;&gt;&lt;b&gt;has&lt;/b&gt;&lt;/span&gt;" style="rhombus;whiteSpace=wrap;html=1;" parent="1" vertex="1">
          <mxGeometry x="540" y="240" width="60" height="60" as="geometry" />
        </mxCell>
        <mxCell id="d5mb9EzyclGPVEoklJ2P-3733" value="" style="endArrow=none;html=1;rounded=0;entryX=0.5;entryY=1;entryDx=0;entryDy=0;exitX=0.5;exitY=0;exitDx=0;exitDy=0;shape=link;" parent="1" source="d5mb9EzyclGPVEoklJ2P-3699" target="d5mb9EzyclGPVEoklJ2P-3732" edge="1">
          <mxGeometry width="50" height="50" relative="1" as="geometry">
            <mxPoint x="240" y="400" as="sourcePoint" />
            <mxPoint x="340" y="460" as="targetPoint" />
          </mxGeometry>
        </mxCell>
        <mxCell id="d5mb9EzyclGPVEoklJ2P-3734" value="&lt;b&gt;1&lt;/b&gt;" style="edgeLabel;html=1;align=center;verticalAlign=middle;resizable=0;points=[];" parent="d5mb9EzyclGPVEoklJ2P-3733" vertex="1" connectable="0">
          <mxGeometry x="-0.5632" y="-1" relative="1" as="geometry">
            <mxPoint x="-1" y="-72" as="offset" />
          </mxGeometry>
        </mxCell>
        <mxCell id="d5mb9EzyclGPVEoklJ2P-3735" value="" style="endArrow=none;html=1;rounded=0;entryX=0.5;entryY=1;entryDx=0;entryDy=0;exitX=0.5;exitY=0;exitDx=0;exitDy=0;" parent="1" source="d5mb9EzyclGPVEoklJ2P-3732" target="d5mb9EzyclGPVEoklJ2P-3701" edge="1">
          <mxGeometry width="50" height="50" relative="1" as="geometry">
            <mxPoint x="400" y="460" as="sourcePoint" />
            <mxPoint x="500" y="510" as="targetPoint" />
          </mxGeometry>
        </mxCell>
        <mxCell id="d5mb9EzyclGPVEoklJ2P-3736" value="&lt;b&gt;1&lt;/b&gt;" style="edgeLabel;html=1;align=center;verticalAlign=middle;resizable=0;points=[];" parent="d5mb9EzyclGPVEoklJ2P-3735" vertex="1" connectable="0">
          <mxGeometry x="0.6867" y="-1" relative="1" as="geometry">
            <mxPoint x="-1" y="24" as="offset" />
          </mxGeometry>
        </mxCell>
        <mxCell id="d5mb9EzyclGPVEoklJ2P-3737" value="&lt;span style=&quot;font-size: 14px;&quot;&gt;&lt;b&gt;evaluates&lt;/b&gt;&lt;/span&gt;" style="rhombus;whiteSpace=wrap;html=1;" parent="1" vertex="1">
          <mxGeometry x="1240" y="580" width="80" height="80" as="geometry" />
        </mxCell>
        <mxCell id="d5mb9EzyclGPVEoklJ2P-3738" value="" style="endArrow=none;html=1;rounded=0;entryX=0.5;entryY=0;entryDx=0;entryDy=0;exitX=1;exitY=0.5;exitDx=0;exitDy=0;" parent="1" source="d5mb9EzyclGPVEoklJ2P-3699" target="d5mb9EzyclGPVEoklJ2P-3737" edge="1">
          <mxGeometry width="50" height="50" relative="1" as="geometry">
            <mxPoint x="620" y="540" as="sourcePoint" />
            <mxPoint x="780" y="640" as="targetPoint" />
          </mxGeometry>
        </mxCell>
        <mxCell id="d5mb9EzyclGPVEoklJ2P-3739" value="&lt;b&gt;N&lt;/b&gt;" style="edgeLabel;html=1;align=center;verticalAlign=middle;resizable=0;points=[];" parent="d5mb9EzyclGPVEoklJ2P-3738" vertex="1" connectable="0">
          <mxGeometry x="-0.7024" y="2" relative="1" as="geometry">
            <mxPoint x="503" y="111" as="offset" />
          </mxGeometry>
        </mxCell>
        <mxCell id="d5mb9EzyclGPVEoklJ2P-3740" value="" style="endArrow=none;html=1;rounded=0;entryX=0.5;entryY=1;entryDx=0;entryDy=0;exitX=1;exitY=0.5;exitDx=0;exitDy=0;shape=link;" parent="1" source="d5mb9EzyclGPVEoklJ2P-3695" target="d5mb9EzyclGPVEoklJ2P-3737" edge="1">
          <mxGeometry width="50" height="50" relative="1" as="geometry">
            <mxPoint x="600" y="757" as="sourcePoint" />
            <mxPoint x="710" y="650" as="targetPoint" />
          </mxGeometry>
        </mxCell>
        <mxCell id="d5mb9EzyclGPVEoklJ2P-3741" value="&lt;b&gt;1&lt;/b&gt;" style="edgeLabel;html=1;align=center;verticalAlign=middle;resizable=0;points=[];" parent="d5mb9EzyclGPVEoklJ2P-3740" vertex="1" connectable="0">
          <mxGeometry x="-0.554" y="3" relative="1" as="geometry">
            <mxPoint x="219" y="122" as="offset" />
          </mxGeometry>
        </mxCell>
        <mxCell id="d5mb9EzyclGPVEoklJ2P-3742" value="&lt;span style=&quot;font-size: 14px;&quot;&gt;&lt;b&gt;is_rated&lt;/b&gt;&lt;/span&gt;" style="rhombus;whiteSpace=wrap;html=1;" parent="1" vertex="1">
          <mxGeometry x="-280" y="570" width="80" height="80" as="geometry" />
        </mxCell>
        <mxCell id="d5mb9EzyclGPVEoklJ2P-3743" value="" style="endArrow=none;html=1;rounded=0;entryX=0;entryY=0.5;entryDx=0;entryDy=0;exitX=0.5;exitY=0;exitDx=0;exitDy=0;" parent="1" source="d5mb9EzyclGPVEoklJ2P-3742" target="d5mb9EzyclGPVEoklJ2P-3699" edge="1">
          <mxGeometry width="50" height="50" relative="1" as="geometry">
            <mxPoint x="375" y="615" as="sourcePoint" />
            <mxPoint x="495" y="540" as="targetPoint" />
          </mxGeometry>
        </mxCell>
        <mxCell id="d5mb9EzyclGPVEoklJ2P-3744" value="&lt;b&gt;N&lt;/b&gt;" style="edgeLabel;html=1;align=center;verticalAlign=middle;resizable=0;points=[];" parent="d5mb9EzyclGPVEoklJ2P-3743" vertex="1" connectable="0">
          <mxGeometry x="0.6451" y="-3" relative="1" as="geometry">
            <mxPoint x="-593" y="94" as="offset" />
          </mxGeometry>
        </mxCell>
        <mxCell id="d5mb9EzyclGPVEoklJ2P-3745" value="" style="endArrow=none;html=1;rounded=0;entryX=0;entryY=0.5;entryDx=0;entryDy=0;exitX=0.5;exitY=1;exitDx=0;exitDy=0;shape=link;" parent="1" source="d5mb9EzyclGPVEoklJ2P-3742" target="d5mb9EzyclGPVEoklJ2P-3695" edge="1">
          <mxGeometry width="50" height="50" relative="1" as="geometry">
            <mxPoint x="305" y="730.0000000000002" as="sourcePoint" />
            <mxPoint x="480" y="810" as="targetPoint" />
          </mxGeometry>
        </mxCell>
        <mxCell id="d5mb9EzyclGPVEoklJ2P-3746" value="&lt;b&gt;1&lt;/b&gt;" style="edgeLabel;html=1;align=center;verticalAlign=middle;resizable=0;points=[];" parent="d5mb9EzyclGPVEoklJ2P-3745" vertex="1" connectable="0">
          <mxGeometry x="0.6867" y="-1" relative="1" as="geometry">
            <mxPoint x="-581" y="-185" as="offset" />
          </mxGeometry>
        </mxCell>
        <mxCell id="d5mb9EzyclGPVEoklJ2P-3747" value="LastName" style="ellipse;whiteSpace=wrap;html=1;align=center;fontStyle=0" parent="1" vertex="1">
          <mxGeometry x="420" y="530" width="100" height="40" as="geometry" />
        </mxCell>
        <mxCell id="d5mb9EzyclGPVEoklJ2P-3748" value="FirstName" style="ellipse;whiteSpace=wrap;html=1;align=center;fontStyle=0" parent="1" vertex="1">
          <mxGeometry x="300" y="620" width="100" height="40" as="geometry" />
        </mxCell>
        <mxCell id="d5mb9EzyclGPVEoklJ2P-3749" value="" style="endArrow=none;html=1;rounded=0;entryX=0.5;entryY=1;entryDx=0;entryDy=0;exitX=0.5;exitY=0;exitDx=0;exitDy=0;" parent="1" source="d5mb9EzyclGPVEoklJ2P-3695" target="d5mb9EzyclGPVEoklJ2P-3747" edge="1">
          <mxGeometry width="50" height="50" relative="1" as="geometry">
            <mxPoint x="410" y="850" as="sourcePoint" />
            <mxPoint x="460" y="800" as="targetPoint" />
          </mxGeometry>
        </mxCell>
        <mxCell id="d5mb9EzyclGPVEoklJ2P-3750" value="" style="endArrow=none;html=1;rounded=0;entryX=0.5;entryY=1;entryDx=0;entryDy=0;exitX=0.5;exitY=0;exitDx=0;exitDy=0;" parent="1" source="d5mb9EzyclGPVEoklJ2P-3695" target="d5mb9EzyclGPVEoklJ2P-3748" edge="1">
          <mxGeometry width="50" height="50" relative="1" as="geometry">
            <mxPoint x="550" y="860" as="sourcePoint" />
            <mxPoint x="510" y="800" as="targetPoint" />
          </mxGeometry>
        </mxCell>
        <mxCell id="d5mb9EzyclGPVEoklJ2P-3751" value="UserType" style="ellipse;whiteSpace=wrap;html=1;align=center;fontStyle=0" parent="1" vertex="1">
          <mxGeometry x="355" y="570" width="100" height="40" as="geometry" />
        </mxCell>
        <mxCell id="d5mb9EzyclGPVEoklJ2P-3754" value="" style="endArrow=none;html=1;rounded=0;entryX=0.5;entryY=1;entryDx=0;entryDy=0;" parent="1" source="d5mb9EzyclGPVEoklJ2P-3697" target="d5mb9EzyclGPVEoklJ2P-3775" edge="1">
          <mxGeometry width="50" height="50" relative="1" as="geometry">
            <mxPoint x="-480" y="780" as="sourcePoint" />
            <mxPoint x="-380" y="470" as="targetPoint" />
          </mxGeometry>
        </mxCell>
        <mxCell id="d5mb9EzyclGPVEoklJ2P-3755" value="" style="endArrow=none;html=1;rounded=0;entryX=0.5;entryY=1;entryDx=0;entryDy=0;exitX=0.5;exitY=0;exitDx=0;exitDy=0;" parent="1" source="d5mb9EzyclGPVEoklJ2P-3695" target="d5mb9EzyclGPVEoklJ2P-3751" edge="1">
          <mxGeometry width="50" height="50" relative="1" as="geometry">
            <mxPoint x="10" y="940" as="sourcePoint" />
            <mxPoint x="60" y="890" as="targetPoint" />
          </mxGeometry>
        </mxCell>
        <mxCell id="d5mb9EzyclGPVEoklJ2P-3758" value="" style="endArrow=none;html=1;rounded=0;entryX=0.5;entryY=1;entryDx=0;entryDy=0;exitX=0.5;exitY=0;exitDx=0;exitDy=0;" parent="1" source="d5mb9EzyclGPVEoklJ2P-3700" target="d5mb9EzyclGPVEoklJ2P-3769" edge="1">
          <mxGeometry width="50" height="50" relative="1" as="geometry">
            <mxPoint x="1650" y="460" as="sourcePoint" />
            <mxPoint x="1700" y="410" as="targetPoint" />
          </mxGeometry>
        </mxCell>
        <mxCell id="d5mb9EzyclGPVEoklJ2P-3759" value="" style="endArrow=none;html=1;rounded=0;entryX=0.5;entryY=1;entryDx=0;entryDy=0;exitX=0.5;exitY=0;exitDx=0;exitDy=0;" parent="1" source="d5mb9EzyclGPVEoklJ2P-3700" target="d5mb9EzyclGPVEoklJ2P-3765" edge="1">
          <mxGeometry width="50" height="50" relative="1" as="geometry">
            <mxPoint x="1660" y="470" as="sourcePoint" />
            <mxPoint x="1710" y="420" as="targetPoint" />
          </mxGeometry>
        </mxCell>
        <mxCell id="d5mb9EzyclGPVEoklJ2P-3760" value="" style="endArrow=none;html=1;rounded=0;entryX=0.5;entryY=1;entryDx=0;entryDy=0;exitX=0.5;exitY=0;exitDx=0;exitDy=0;" parent="1" source="d5mb9EzyclGPVEoklJ2P-3700" target="d5mb9EzyclGPVEoklJ2P-3768" edge="1">
          <mxGeometry width="50" height="50" relative="1" as="geometry">
            <mxPoint x="1660" y="470" as="sourcePoint" />
            <mxPoint x="1710" y="420" as="targetPoint" />
          </mxGeometry>
        </mxCell>
        <mxCell id="d5mb9EzyclGPVEoklJ2P-3761" value="" style="endArrow=none;html=1;rounded=0;entryX=0.5;entryY=1;entryDx=0;entryDy=0;exitX=0.5;exitY=0;exitDx=0;exitDy=0;" parent="1" source="d5mb9EzyclGPVEoklJ2P-3700" target="d5mb9EzyclGPVEoklJ2P-3763" edge="1">
          <mxGeometry width="50" height="50" relative="1" as="geometry">
            <mxPoint x="1670" y="480" as="sourcePoint" />
            <mxPoint x="1720" y="430" as="targetPoint" />
          </mxGeometry>
        </mxCell>
        <mxCell id="d5mb9EzyclGPVEoklJ2P-3763" value="TotalOrders " style="ellipse;whiteSpace=wrap;html=1;align=center;fontStyle=0" parent="1" vertex="1">
          <mxGeometry x="1560" y="325" width="100" height="40" as="geometry" />
        </mxCell>
        <mxCell id="d5mb9EzyclGPVEoklJ2P-3765" value="StoreType " style="ellipse;whiteSpace=wrap;html=1;align=center;fontStyle=0" parent="1" vertex="1">
          <mxGeometry x="1600" y="382.5" width="100" height="40" as="geometry" />
        </mxCell>
        <mxCell id="d5mb9EzyclGPVEoklJ2P-3766" value="" style="endArrow=none;html=1;rounded=0;entryX=0.5;entryY=1;entryDx=0;entryDy=0;exitX=0.5;exitY=0;exitDx=0;exitDy=0;" parent="1" source="d5mb9EzyclGPVEoklJ2P-3700" target="lcqjdDuSJG5RwVw1PZ8H-8" edge="1">
          <mxGeometry width="50" height="50" relative="1" as="geometry">
            <mxPoint x="1670" y="480" as="sourcePoint" />
            <mxPoint x="1350" y="430" as="targetPoint" />
          </mxGeometry>
        </mxCell>
        <mxCell id="d5mb9EzyclGPVEoklJ2P-3767" value="" style="endArrow=none;html=1;rounded=0;entryX=0.5;entryY=1;entryDx=0;entryDy=0;exitX=0.5;exitY=0;exitDx=0;exitDy=0;" parent="1" source="d5mb9EzyclGPVEoklJ2P-3700" target="i74WXMRxZii70deNXKSU-11" edge="1">
          <mxGeometry width="50" height="50" relative="1" as="geometry">
            <mxPoint x="1720" y="530" as="sourcePoint" />
            <mxPoint x="1230" y="425" as="targetPoint" />
          </mxGeometry>
        </mxCell>
        <mxCell id="d5mb9EzyclGPVEoklJ2P-3768" value="StoreName " style="ellipse;whiteSpace=wrap;html=1;align=center;fontStyle=0" parent="1" vertex="1">
          <mxGeometry x="1120" y="450" width="100" height="40" as="geometry" />
        </mxCell>
        <mxCell id="d5mb9EzyclGPVEoklJ2P-3769" value="&lt;b&gt;&lt;u&gt;Id &lt;/u&gt;&lt;/b&gt;" style="ellipse;whiteSpace=wrap;html=1;align=center;fontStyle=0" parent="1" vertex="1">
          <mxGeometry x="1600" y="450" width="100" height="40" as="geometry" />
        </mxCell>
        <mxCell id="d5mb9EzyclGPVEoklJ2P-3770" value="" style="endArrow=none;html=1;rounded=0;entryX=0.5;entryY=1;entryDx=0;entryDy=0;exitX=0.5;exitY=0;exitDx=0;exitDy=0;" parent="1" source="d5mb9EzyclGPVEoklJ2P-3695" target="d5mb9EzyclGPVEoklJ2P-3773" edge="1">
          <mxGeometry width="50" height="50" relative="1" as="geometry">
            <mxPoint x="-200" y="710" as="sourcePoint" />
            <mxPoint x="-150" y="660" as="targetPoint" />
          </mxGeometry>
        </mxCell>
        <mxCell id="d5mb9EzyclGPVEoklJ2P-3771" value="" style="endArrow=none;html=1;rounded=0;entryX=0.5;entryY=1;entryDx=0;entryDy=0;exitX=0.5;exitY=0;exitDx=0;exitDy=0;" parent="1" source="d5mb9EzyclGPVEoklJ2P-3697" target="d5mb9EzyclGPVEoklJ2P-3776" edge="1">
          <mxGeometry width="50" height="50" relative="1" as="geometry">
            <mxPoint x="-680" y="560" as="sourcePoint" />
            <mxPoint x="-630" y="510" as="targetPoint" />
          </mxGeometry>
        </mxCell>
        <mxCell id="d5mb9EzyclGPVEoklJ2P-3773" value="IsActive " style="ellipse;whiteSpace=wrap;html=1;align=center;fontStyle=0" parent="1" vertex="1">
          <mxGeometry x="215" y="730" width="100" height="40" as="geometry" />
        </mxCell>
        <mxCell id="d5mb9EzyclGPVEoklJ2P-3774" value="TotalDeliveries" style="ellipse;whiteSpace=wrap;html=1;align=center;fontStyle=0" parent="1" vertex="1">
          <mxGeometry x="-1160" y="365" width="100" height="40" as="geometry" />
        </mxCell>
        <mxCell id="d5mb9EzyclGPVEoklJ2P-3775" value="Rating " style="ellipse;whiteSpace=wrap;html=1;align=center;fontStyle=0" parent="1" vertex="1">
          <mxGeometry x="-50" y="360" width="100" height="40" as="geometry" />
        </mxCell>
        <mxCell id="d5mb9EzyclGPVEoklJ2P-3776" value="IsAvailable " style="ellipse;whiteSpace=wrap;html=1;align=center;fontStyle=0" parent="1" vertex="1">
          <mxGeometry x="-1160" y="425" width="100" height="40" as="geometry" />
        </mxCell>
        <mxCell id="d5mb9EzyclGPVEoklJ2P-3777" value="" style="endArrow=none;html=1;rounded=0;entryX=0.5;entryY=1;entryDx=0;entryDy=0;exitX=0.5;exitY=0;exitDx=0;exitDy=0;" parent="1" source="d5mb9EzyclGPVEoklJ2P-3697" target="d5mb9EzyclGPVEoklJ2P-3774" edge="1">
          <mxGeometry width="50" height="50" relative="1" as="geometry">
            <mxPoint x="-590" y="400" as="sourcePoint" />
            <mxPoint x="-660" y="470" as="targetPoint" />
          </mxGeometry>
        </mxCell>
        <mxCell id="d5mb9EzyclGPVEoklJ2P-3779" value="ShasehPhotoUrl" style="ellipse;whiteSpace=wrap;html=1;align=center;fontStyle=0" parent="1" vertex="1">
          <mxGeometry x="-1150" y="310" width="120" height="40" as="geometry" />
        </mxCell>
        <mxCell id="d5mb9EzyclGPVEoklJ2P-3780" value="VehicleType " style="ellipse;whiteSpace=wrap;html=1;align=center;fontStyle=0" parent="1" vertex="1">
          <mxGeometry x="-320" y="190" width="100" height="40" as="geometry" />
        </mxCell>
        <mxCell id="d5mb9EzyclGPVEoklJ2P-3781" value="&lt;b&gt;&lt;u&gt;Id &lt;/u&gt;&lt;/b&gt;" style="ellipse;whiteSpace=wrap;html=1;align=center;fontStyle=0" parent="1" vertex="1">
          <mxGeometry x="-45" y="410" width="100" height="40" as="geometry" />
        </mxCell>
        <mxCell id="d5mb9EzyclGPVEoklJ2P-3782" value="" style="endArrow=none;html=1;rounded=0;exitX=0.5;exitY=0;exitDx=0;exitDy=0;entryX=0.5;entryY=1;entryDx=0;entryDy=0;" parent="1" source="d5mb9EzyclGPVEoklJ2P-3697" target="d5mb9EzyclGPVEoklJ2P-3779" edge="1">
          <mxGeometry width="50" height="50" relative="1" as="geometry">
            <mxPoint x="-700" y="530" as="sourcePoint" />
            <mxPoint x="-460" y="540" as="targetPoint" />
          </mxGeometry>
        </mxCell>
        <mxCell id="d5mb9EzyclGPVEoklJ2P-3783" value="" style="endArrow=none;html=1;rounded=0;entryX=0.5;entryY=1;entryDx=0;entryDy=0;exitX=0.5;exitY=0;exitDx=0;exitDy=0;" parent="1" source="d5mb9EzyclGPVEoklJ2P-3697" target="d5mb9EzyclGPVEoklJ2P-3781" edge="1">
          <mxGeometry width="50" height="50" relative="1" as="geometry">
            <mxPoint x="-680" y="550" as="sourcePoint" />
            <mxPoint x="-630" y="500" as="targetPoint" />
          </mxGeometry>
        </mxCell>
        <mxCell id="d5mb9EzyclGPVEoklJ2P-3784" value="" style="endArrow=none;html=1;rounded=0;entryX=0.5;entryY=1;entryDx=0;entryDy=0;exitX=0.5;exitY=0;exitDx=0;exitDy=0;" parent="1" source="d5mb9EzyclGPVEoklJ2P-3697" target="d5mb9EzyclGPVEoklJ2P-3780" edge="1">
          <mxGeometry width="50" height="50" relative="1" as="geometry">
            <mxPoint x="-670" y="560" as="sourcePoint" />
            <mxPoint x="-620" y="510" as="targetPoint" />
          </mxGeometry>
        </mxCell>
        <mxCell id="d5mb9EzyclGPVEoklJ2P-3785" value="" style="endArrow=none;html=1;rounded=0;entryX=0.5;entryY=1;entryDx=0;entryDy=0;exitX=0.5;exitY=0;exitDx=0;exitDy=0;" parent="1" source="d5mb9EzyclGPVEoklJ2P-3698" target="d5mb9EzyclGPVEoklJ2P-3792" edge="1">
          <mxGeometry width="50" height="50" relative="1" as="geometry">
            <mxPoint x="935.0000000000001" y="1158" as="sourcePoint" />
            <mxPoint x="1335" y="1170" as="targetPoint" />
          </mxGeometry>
        </mxCell>
        <mxCell id="d5mb9EzyclGPVEoklJ2P-3786" value="" style="endArrow=none;html=1;rounded=0;entryX=0.5;entryY=1;entryDx=0;entryDy=0;exitX=0.5;exitY=0;exitDx=0;exitDy=0;" parent="1" source="d5mb9EzyclGPVEoklJ2P-3698" target="d5mb9EzyclGPVEoklJ2P-3788" edge="1">
          <mxGeometry width="50" height="50" relative="1" as="geometry">
            <mxPoint x="1180" y="1090" as="sourcePoint" />
            <mxPoint x="1230" y="1040" as="targetPoint" />
          </mxGeometry>
        </mxCell>
        <mxCell id="d5mb9EzyclGPVEoklJ2P-3787" value="CanViewReports " style="ellipse;whiteSpace=wrap;html=1;align=center;fontStyle=0" parent="1" vertex="1">
          <mxGeometry x="840" y="1020" width="100" height="40" as="geometry" />
        </mxCell>
        <mxCell id="d5mb9EzyclGPVEoklJ2P-3788" value="CanManageOrders " style="ellipse;whiteSpace=wrap;html=1;align=center;fontStyle=0" parent="1" vertex="1">
          <mxGeometry x="1130" y="1110" width="125" height="40" as="geometry" />
        </mxCell>
        <mxCell id="d5mb9EzyclGPVEoklJ2P-3789" value="CanManageDrivers" style="ellipse;whiteSpace=wrap;html=1;align=center;fontStyle=0" parent="1" vertex="1">
          <mxGeometry x="720" y="1050" width="120" height="40" as="geometry" />
        </mxCell>
        <mxCell id="d5mb9EzyclGPVEoklJ2P-3790" value="CanManageMerchants " style="ellipse;whiteSpace=wrap;html=1;align=center;fontStyle=0" parent="1" vertex="1">
          <mxGeometry x="1120" y="1060" width="130" height="40" as="geometry" />
        </mxCell>
        <mxCell id="d5mb9EzyclGPVEoklJ2P-3791" value="" style="endArrow=none;html=1;rounded=0;entryX=0.5;entryY=1;entryDx=0;entryDy=0;exitX=0.5;exitY=0;exitDx=0;exitDy=0;" parent="1" source="d5mb9EzyclGPVEoklJ2P-3698" target="d5mb9EzyclGPVEoklJ2P-3789" edge="1">
          <mxGeometry width="50" height="50" relative="1" as="geometry">
            <mxPoint x="1180" y="1090" as="sourcePoint" />
            <mxPoint x="1230" y="1040" as="targetPoint" />
          </mxGeometry>
        </mxCell>
        <mxCell id="d5mb9EzyclGPVEoklJ2P-3792" value="Role " style="ellipse;whiteSpace=wrap;html=1;align=center;fontStyle=0" parent="1" vertex="1">
          <mxGeometry x="1080" y="1010" width="100" height="40" as="geometry" />
        </mxCell>
        <mxCell id="d5mb9EzyclGPVEoklJ2P-3793" value="&lt;b&gt;&lt;u&gt;Id &lt;/u&gt;&lt;/b&gt;" style="ellipse;whiteSpace=wrap;html=1;align=center;fontStyle=0" parent="1" vertex="1">
          <mxGeometry x="980.0000000000001" y="1030" width="100" height="40" as="geometry" />
        </mxCell>
        <mxCell id="d5mb9EzyclGPVEoklJ2P-3794" value="" style="endArrow=none;html=1;rounded=0;entryX=0.5;entryY=1;entryDx=0;entryDy=0;exitX=0.5;exitY=0;exitDx=0;exitDy=0;" parent="1" source="d5mb9EzyclGPVEoklJ2P-3698" target="d5mb9EzyclGPVEoklJ2P-3790" edge="1">
          <mxGeometry width="50" height="50" relative="1" as="geometry">
            <mxPoint x="1190" y="1100" as="sourcePoint" />
            <mxPoint x="1240" y="1050" as="targetPoint" />
          </mxGeometry>
        </mxCell>
        <mxCell id="d5mb9EzyclGPVEoklJ2P-3795" value="" style="endArrow=none;html=1;rounded=0;exitX=0.5;exitY=0;exitDx=0;exitDy=0;entryX=0.5;entryY=1;entryDx=0;entryDy=0;" parent="1" source="d5mb9EzyclGPVEoklJ2P-3698" target="d5mb9EzyclGPVEoklJ2P-3793" edge="1">
          <mxGeometry width="50" height="50" relative="1" as="geometry">
            <mxPoint x="955.0000000000001" y="1140" as="sourcePoint" />
            <mxPoint x="1005.0000000000001" y="1090" as="targetPoint" />
          </mxGeometry>
        </mxCell>
        <mxCell id="d5mb9EzyclGPVEoklJ2P-3796" value="" style="endArrow=none;html=1;rounded=0;entryX=0.5;entryY=1;entryDx=0;entryDy=0;exitX=0.5;exitY=0;exitDx=0;exitDy=0;" parent="1" source="d5mb9EzyclGPVEoklJ2P-3698" target="d5mb9EzyclGPVEoklJ2P-3787" edge="1">
          <mxGeometry width="50" height="50" relative="1" as="geometry">
            <mxPoint x="1200" y="1110" as="sourcePoint" />
            <mxPoint x="1250" y="1060" as="targetPoint" />
          </mxGeometry>
        </mxCell>
        <mxCell id="d5mb9EzyclGPVEoklJ2P-3797" value="" style="endArrow=none;html=1;rounded=0;entryX=0.5;entryY=1;entryDx=0;entryDy=0;exitX=0.5;exitY=0;exitDx=0;exitDy=0;" parent="1" source="d5mb9EzyclGPVEoklJ2P-3701" target="d5mb9EzyclGPVEoklJ2P-3798" edge="1">
          <mxGeometry width="50" height="50" relative="1" as="geometry">
            <mxPoint x="950" y="50" as="sourcePoint" />
            <mxPoint x="1000" as="targetPoint" />
          </mxGeometry>
        </mxCell>
        <mxCell id="d5mb9EzyclGPVEoklJ2P-3798" value="CancelledAt " style="ellipse;whiteSpace=wrap;html=1;align=center;fontStyle=0" parent="1" vertex="1">
          <mxGeometry x="830" y="-170" width="100" height="40" as="geometry" />
        </mxCell>
        <mxCell id="d5mb9EzyclGPVEoklJ2P-3799" value="DeliveredAt " style="ellipse;whiteSpace=wrap;html=1;align=center;fontStyle=0" parent="1" vertex="1">
          <mxGeometry x="430" y="-270" width="100" height="40" as="geometry" />
        </mxCell>
        <mxCell id="d5mb9EzyclGPVEoklJ2P-3800" value="" style="endArrow=none;html=1;rounded=0;entryX=0.5;entryY=1;entryDx=0;entryDy=0;exitX=0.5;exitY=0;exitDx=0;exitDy=0;" parent="1" source="d5mb9EzyclGPVEoklJ2P-3701" target="d5mb9EzyclGPVEoklJ2P-3804" edge="1">
          <mxGeometry width="50" height="50" relative="1" as="geometry">
            <mxPoint x="870" y="-70" as="sourcePoint" />
            <mxPoint x="920" y="-120" as="targetPoint" />
          </mxGeometry>
        </mxCell>
        <mxCell id="d5mb9EzyclGPVEoklJ2P-3801" value="" style="endArrow=none;html=1;rounded=0;entryX=0.5;entryY=1;entryDx=0;entryDy=0;exitX=0.5;exitY=0;exitDx=0;exitDy=0;" parent="1" source="d5mb9EzyclGPVEoklJ2P-3701" target="d5mb9EzyclGPVEoklJ2P-3805" edge="1">
          <mxGeometry width="50" height="50" relative="1" as="geometry">
            <mxPoint x="870" y="-80" as="sourcePoint" />
            <mxPoint x="920" y="-130" as="targetPoint" />
          </mxGeometry>
        </mxCell>
        <mxCell id="d5mb9EzyclGPVEoklJ2P-3802" value="AssignedAt " style="ellipse;whiteSpace=wrap;html=1;align=center;fontStyle=0" parent="1" vertex="1">
          <mxGeometry x="190" y="40" width="100" height="40" as="geometry" />
        </mxCell>
        <mxCell id="d5mb9EzyclGPVEoklJ2P-3803" value="" style="endArrow=none;html=1;rounded=0;entryX=0.5;entryY=1;entryDx=0;entryDy=0;exitX=0.5;exitY=0;exitDx=0;exitDy=0;" parent="1" source="d5mb9EzyclGPVEoklJ2P-3701" target="d5mb9EzyclGPVEoklJ2P-3808" edge="1">
          <mxGeometry width="50" height="50" relative="1" as="geometry">
            <mxPoint x="870" y="-80" as="sourcePoint" />
            <mxPoint x="920" y="-130" as="targetPoint" />
          </mxGeometry>
        </mxCell>
        <mxCell id="d5mb9EzyclGPVEoklJ2P-3804" value="PlacedAt " style="ellipse;whiteSpace=wrap;html=1;align=center;fontStyle=0" parent="1" vertex="1">
          <mxGeometry x="190" y="-70" width="100" height="40" as="geometry" />
        </mxCell>
        <mxCell id="d5mb9EzyclGPVEoklJ2P-3805" value="SpecialInstructions " style="ellipse;whiteSpace=wrap;html=1;align=center;fontStyle=0" parent="1" vertex="1">
          <mxGeometry x="910" y="-70" width="140" height="40" as="geometry" />
        </mxCell>
        <mxCell id="d5mb9EzyclGPVEoklJ2P-3806" value="" style="endArrow=none;html=1;rounded=0;entryX=0.5;entryY=0;entryDx=0;entryDy=0;exitX=0.5;exitY=1;exitDx=0;exitDy=0;" parent="1" source="d5mb9EzyclGPVEoklJ2P-3802" target="d5mb9EzyclGPVEoklJ2P-3701" edge="1">
          <mxGeometry width="50" height="50" relative="1" as="geometry">
            <mxPoint x="880" y="-70" as="sourcePoint" />
            <mxPoint x="930" y="-120" as="targetPoint" />
          </mxGeometry>
        </mxCell>
        <mxCell id="d5mb9EzyclGPVEoklJ2P-3807" value="" style="endArrow=none;html=1;rounded=0;entryX=0.5;entryY=1;entryDx=0;entryDy=0;exitX=0.5;exitY=0;exitDx=0;exitDy=0;" parent="1" source="d5mb9EzyclGPVEoklJ2P-3701" target="d5mb9EzyclGPVEoklJ2P-3820" edge="1">
          <mxGeometry width="50" height="50" relative="1" as="geometry">
            <mxPoint x="570" y="130" as="sourcePoint" />
            <mxPoint x="620" y="80" as="targetPoint" />
          </mxGeometry>
        </mxCell>
        <mxCell id="d5mb9EzyclGPVEoklJ2P-3808" value="OrderStatus " style="ellipse;whiteSpace=wrap;html=1;align=center;fontStyle=0" parent="1" vertex="1">
          <mxGeometry x="880" y="-120" width="100" height="40" as="geometry" />
        </mxCell>
        <mxCell id="d5mb9EzyclGPVEoklJ2P-3809" value="PaymentMethod" style="ellipse;whiteSpace=wrap;html=1;align=center;fontStyle=0" parent="1" vertex="1">
          <mxGeometry x="225" y="-120" width="110" height="40" as="geometry" />
        </mxCell>
        <mxCell id="d5mb9EzyclGPVEoklJ2P-3810" value="" style="endArrow=none;html=1;rounded=0;entryX=0.5;entryY=1;entryDx=0;entryDy=0;exitX=0.5;exitY=0;exitDx=0;exitDy=0;" parent="1" source="d5mb9EzyclGPVEoklJ2P-3701" target="d5mb9EzyclGPVEoklJ2P-3818" edge="1">
          <mxGeometry width="50" height="50" relative="1" as="geometry">
            <mxPoint x="580" y="-70" as="sourcePoint" />
            <mxPoint x="630" y="-120" as="targetPoint" />
          </mxGeometry>
        </mxCell>
        <mxCell id="d5mb9EzyclGPVEoklJ2P-3811" value="&lt;span style=&quot;color: rgba(0, 0, 0, 0); font-family: monospace; font-size: 0px; text-align: start; text-wrap-mode: nowrap;&quot;&gt;%3CmxGraphModel%3E%3Croot%3E%3CmxCell%20id%3D%220%22%2F%3E%3CmxCell%20id%3D%221%22%20parent%3D%220%22%2F%3E%3CmxCell%20id%3D%222%22%20value%3D%22%22%20style%3D%22endArrow%3Dnone%3Bhtml%3D1%3Brounded%3D0%3B%22%20edge%3D%221%22%20parent%3D%221%22%3E%3CmxGeometry%20width%3D%2250%22%20height%3D%2250%22%20relative%3D%221%22%20as%3D%22geometry%22%3E%3CmxPoint%20x%3D%22440%22%20y%3D%22-20%22%20as%3D%22sourcePoint%22%2F%3E%3CmxPoint%20x%3D%22490%22%20y%3D%22-70%22%20as%3D%22targetPoint%22%2F%3E%3C%2FmxGeometry%3E%3C%2FmxCell%3E%3CmxCell%20id%3D%223%22%20value%3D%22%22%20style%3D%22endArrow%3Dnone%3Bhtml%3D1%3Brounded%3D0%3B%22%20edge%3D%221%22%20parent%3D%221%22%3E%3CmxGeometry%20width%3D%2250%22%20height%3D%2250%22%20relative%3D%221%22%20as%3D%22geometry%22%3E%3CmxPoint%20x%3D%22450%22%20y%3D%22-10%22%20as%3D%22sourcePoint%22%2F%3E%3CmxPoint%20x%3D%22500%22%20y%3D%22-60%22%20as%3D%22targetPoint%22%2F%3E%3C%2FmxGeometry%3E%3C%2FmxCell%3E%3CmxCell%20id%3D%224%22%20value%3D%22%22%20style%3D%22endArrow%3Dnone%3Bhtml%3D1%3Brounded%3D0%3B%22%20edge%3D%221%22%20parent%3D%221%22%3E%3CmxGeometry%20width%3D%2250%22%20height%3D%2250%22%20relative%3D%221%22%20as%3D%22geometry%22%3E%3CmxPoint%20x%3D%22460%22%20as%3D%22sourcePoint%22%2F%3E%3CmxPoint%20x%3D%22510%22%20y%3D%22-50%22%20as%3D%22targetPoint%22%2F%3E%3C%2FmxGeometry%3E%3C%2FmxCell%3E%3CmxCell%20id%3D%225%22%20value%3D%22%22%20style%3D%22endArrow%3Dnone%3Bhtml%3D1%3Brounded%3D0%3B%22%20edge%3D%221%22%20parent%3D%221%22%3E%3CmxGeometry%20width%3D%2250%22%20height%3D%2250%22%20relative%3D%221%22%20as%3D%22geometry%22%3E%3CmxPoint%20x%3D%22440%22%20y%3D%22-20%22%20as%3D%22sourcePoint%22%2F%3E%3CmxPoint%20x%3D%22490%22%20y%3D%22-70%22%20as%3D%22targetPoint%22%2F%3E%3C%2FmxGeometry%3E%3C%2FmxCell%3E%3CmxCell%20id%3D%226%22%20value%3D%22%22%20style%3D%22endArrow%3Dnone%3Bhtml%3D1%3Brounded%3D0%3B%22%20edge%3D%221%22%20parent%3D%221%22%3E%3CmxGeometry%20width%3D%2250%22%20height%3D%2250%22%20relative%3D%221%22%20as%3D%22geometry%22%3E%3CmxPoint%20x%3D%22450%22%20y%3D%22-10%22%20as%3D%22sourcePoint%22%2F%3E%3CmxPoint%20x%3D%22500%22%20y%3D%22-60%22%20as%3D%22targetPoint%22%2F%3E%3C%2FmxGeometry%3E%3C%2FmxCell%3E%3CmxCell%20id%3D%227%22%20value%3D%22%22%20style%3D%22endArrow%3Dnone%3Bhtml%3D1%3Brounded%3D0%3B%22%20edge%3D%221%22%20parent%3D%221%22%3E%3CmxGeometry%20width%3D%2250%22%20height%3D%2250%22%20relative%3D%221%22%20as%3D%22geometry%22%3E%3CmxPoint%20x%3D%22450%22%20y%3D%22-10%22%20as%3D%22sourcePoint%22%2F%3E%3CmxPoint%20x%3D%22500%22%20y%3D%22-60%22%20as%3D%22targetPoint%22%2F%3E%3C%2FmxGeometry%3E%3C%2FmxCell%3E%3CmxCell%20id%3D%228%22%20value%3D%22%22%20style%3D%22endArrow%3Dnone%3Bhtml%3D1%3Brounded%3D0%3B%22%20edge%3D%221%22%20parent%3D%221%22%3E%3CmxGeometry%20width%3D%2250%22%20height%3D%2250%22%20relative%3D%221%22%20as%3D%22geometry%22%3E%3CmxPoint%20x%3D%22440%22%20y%3D%22-30%22%20as%3D%22sourcePoint%22%2F%3E%3CmxPoint%20x%3D%22490%22%20y%3D%22-80%22%20as%3D%22targetPoint%22%2F%3E%3C%2FmxGeometry%3E%3C%2FmxCell%3E%3CmxCell%20id%3D%229%22%20value%3D%22%22%20style%3D%22endArrow%3Dnone%3Bhtml%3D1%3Brounded%3D0%3B%22%20edge%3D%221%22%20parent%3D%221%22%3E%3CmxGeometry%20width%3D%2250%22%20height%3D%2250%22%20relative%3D%221%22%20as%3D%22geometry%22%3E%3CmxPoint%20x%3D%22450%22%20y%3D%22-20%22%20as%3D%22sourcePoint%22%2F%3E%3CmxPoint%20x%3D%22500%22%20y%3D%22-70%22%20as%3D%22targetPoint%22%2F%3E%3C%2FmxGeometry%3E%3C%2FmxCell%3E%3CmxCell%20id%3D%2210%22%20value%3D%22%22%20style%3D%22endArrow%3Dnone%3Bhtml%3D1%3Brounded%3D0%3B%22%20edge%3D%221%22%20parent%3D%221%22%3E%3CmxGeometry%20width%3D%2250%22%20height%3D%2250%22%20relative%3D%221%22%20as%3D%22geometry%22%3E%3CmxPoint%20x%3D%22460%22%20y%3D%22-10%22%20as%3D%22sourcePoint%22%2F%3E%3CmxPoint%20x%3D%22510%22%20y%3D%22-60%22%20as%3D%22targetPoint%22%2F%3E%3C%2FmxGeometry%3E%3C%2FmxCell%3E%3CmxCell%20id%3D%2211%22%20value%3D%22%22%20style%3D%22endArrow%3Dnone%3Bhtml%3D1%3Brounded%3D0%3B%22%20edge%3D%221%22%20parent%3D%221%22%3E%3CmxGeometry%20width%3D%2250%22%20height%3D%2250%22%20relative%3D%221%22%20as%3D%22geometry%22%3E%3CmxPoint%20x%3D%22440%22%20y%3D%22-30%22%20as%3D%22sourcePoint%22%2F%3E%3CmxPoint%20x%3D%22490%22%20y%3D%22-80%22%20as%3D%22targetPoint%22%2F%3E%3C%2FmxGeometry%3E%3C%2FmxCell%3E%3CmxCell%20id%3D%2212%22%20value%3D%22%22%20style%3D%22endArrow%3Dnone%3Bhtml%3D1%3Brounded%3D0%3B%22%20edge%3D%221%22%20parent%3D%221%22%3E%3CmxGeometry%20width%3D%2250%22%20height%3D%2250%22%20relative%3D%221%22%20as%3D%22geometry%22%3E%3CmxPoint%20x%3D%22450%22%20y%3D%22-20%22%20as%3D%22sourcePoint%22%2F%3E%3CmxPoint%20x%3D%22500%22%20y%3D%22-70%22%20as%3D%22targetPoint%22%2F%3E%3C%2FmxGeometry%3E%3C%2FmxCell%3E%3CmxCell%20id%3D%2213%22%20value%3D%22%22%20style%3D%22endArrow%3Dnone%3Bhtml%3D1%3Brounded%3D0%3B%22%20edge%3D%221%22%20parent%3D%221%22%3E%3CmxGeometry%20width%3D%2250%22%20height%3D%2250%22%20relative%3D%221%22%20as%3D%22geometry%22%3E%3CmxPoint%20x%3D%22460%22%20y%3D%22-10%22%20as%3D%22sourcePoint%22%2F%3E%3CmxPoint%20x%3D%22510%22%20y%3D%22-60%22%20as%3D%22targetPoint%22%2F%3E%3C%2FmxGeometry%3E%3C%2FmxCell%3E%3CmxCell%20id%3D%2214%22%20value%3D%22%22%20style%3D%22endArrow%3Dnone%3Bhtml%3D1%3Brounded%3D0%3B%22%20edge%3D%221%22%20parent%3D%221%22%3E%3CmxGeometry%20width%3D%2250%22%20height%3D%2250%22%20relative%3D%221%22%20as%3D%22geometry%22%3E%3CmxPoint%20x%3D%22470%22%20as%3D%22sourcePoint%22%2F%3E%3CmxPoint%20x%3D%22520%22%20y%3D%22-50%22%20as%3D%22targetPoint%22%2F%3E%3C%2FmxGeometry%3E%3C%2FmxCell%3E%3CmxCell%20id%3D%2215%22%20value%3D%22%22%20style%3D%22endArrow%3Dnone%3Bhtml%3D1%3Brounded%3D0%3B%22%20edge%3D%221%22%20parent%3D%221%22%3E%3CmxGeometry%20width%3D%2250%22%20height%3D%2250%22%20relative%3D%221%22%20as%3D%22geometry%22%3E%3CmxPoint%20x%3D%22440%22%20y%3D%22-30%22%20as%3D%22sourcePoint%22%2F%3E%3CmxPoint%20x%3D%22490%22%20y%3D%22-80%22%20as%3D%22targetPoint%22%2F%3E%3C%2FmxGeometry%3E%3C%2FmxCell%3E%3CmxCell%20id%3D%2216%22%20value%3D%22%22%20style%3D%22endArrow%3Dnone%3Bhtml%3D1%3Brounded%3D0%3B%22%20edge%3D%221%22%20parent%3D%221%22%3E%3CmxGeometry%20width%3D%2250%22%20height%3D%2250%22%20relative%3D%221%22%20as%3D%22geometry%22%3E%3CmxPoint%20x%3D%22450%22%20y%3D%22-20%22%20as%3D%22sourcePoint%22%2F%3E%3CmxPoint%20x%3D%22500%22%20y%3D%22-70%22%20as%3D%22targetPoint%22%2F%3E%3C%2FmxGeometry%3E%3C%2FmxCell%3E%3CmxCell%20id%3D%2217%22%20value%3D%22%22%20style%3D%22endArrow%3Dnone%3Bhtml%3D1%3Brounded%3D0%3B%22%20edge%3D%221%22%20parent%3D%221%22%3E%3CmxGeometry%20width%3D%2250%22%20height%3D%2250%22%20relative%3D%221%22%20as%3D%22geometry%22%3E%3CmxPoint%20x%3D%22460%22%20y%3D%22-10%22%20as%3D%22sourcePoint%22%2F%3E%3CmxPoint%20x%3D%22510%22%20y%3D%22-60%22%20as%3D%22targetPoint%22%2F%3E%3C%2FmxGeometry%3E%3C%2FmxCell%3E%3CmxCell%20id%3D%2218%22%20value%3D%22%22%20style%3D%22endArrow%3Dnone%3Bhtml%3D1%3Brounded%3D0%3B%22%20edge%3D%221%22%20parent%3D%221%22%3E%3CmxGeometry%20width%3D%2250%22%20height%3D%2250%22%20relative%3D%221%22%20as%3D%22geometry%22%3E%3CmxPoint%20x%3D%22470%22%20as%3D%22sourcePoint%22%2F%3E%3CmxPoint%20x%3D%22520%22%20y%3D%22-50%22%20as%3D%22targetPoint%22%2F%3E%3C%2FmxGeometry%3E%3C%2FmxCell%3E%3CmxCell%20id%3D%2219%22%20value%3D%22%22%20style%3D%22endArrow%3Dnone%3Bhtml%3D1%3Brounded%3D0%3B%22%20edge%3D%221%22%20parent%3D%221%22%3E%3CmxGeometry%20width%3D%2250%22%20height%3D%2250%22%20relative%3D%221%22%20as%3D%22geometry%22%3E%3CmxPoint%20x%3D%22440%22%20y%3D%22-30%22%20as%3D%22sourcePoint%22%2F%3E%3CmxPoint%20x%3D%22490%22%20y%3D%22-80%22%20as%3D%22targetPoint%22%2F%3E%3C%2FmxGeometry%3E%3C%2FmxCell%3E%3CmxCell%20id%3D%2220%22%20value%3D%22%22%20style%3D%22endArrow%3Dnone%3Bhtml%3D1%3Brounded%3D0%3B%22%20edge%3D%221%22%20parent%3D%221%22%3E%3CmxGeometry%20width%3D%2250%22%20height%3D%2250%22%20relative%3D%221%22%20as%3D%22geometry%22%3E%3CmxPoint%20x%3D%22450%22%20y%3D%22-20%22%20as%3D%22sourcePoint%22%2F%3E%3CmxPoint%20x%3D%22500%22%20y%3D%22-70%22%20as%3D%22targetPoint%22%2F%3E%3C%2FmxGeometry%3E%3C%2FmxCell%3E%3CmxCell%20id%3D%2221%22%20value%3D%22%22%20style%3D%22endArrow%3Dnone%3Bhtml%3D1%3Brounded%3D0%3B%22%20edge%3D%221%22%20parent%3D%221%22%3E%3CmxGeometry%20width%3D%2250%22%20height%3D%2250%22%20relative%3D%221%22%20as%3D%22geometry%22%3E%3CmxPoint%20x%3D%22460%22%20y%3D%22-10%22%20as%3D%22sourcePoint%22%2F%3E%3CmxPoint%20x%3D%22510%22%20y%3D%22-60%22%20as%3D%22targetPoint%22%2F%3E%3C%2FmxGeometry%3E%3C%2FmxCell%3E%3CmxCell%20id%3D%2222%22%20value%3D%22%22%20style%3D%22endArrow%3Dnone%3Bhtml%3D1%3Brounded%3D0%3B%22%20edge%3D%221%22%20parent%3D%221%22%3E%3CmxGeometry%20width%3D%2250%22%20height%3D%2250%22%20relative%3D%221%22%20as%3D%22geometry%22%3E%3CmxPoint%20x%3D%22450%22%20y%3D%22-20%22%20as%3D%22sourcePoint%22%2F%3E%3CmxPoint%20x%3D%22500%22%20y%3D%22-70%22%20as%3D%22targetPoint%22%2F%3E%3C%2FmxGeometry%3E%3C%2FmxCell%3E%3CmxCell%20id%3D%2223%22%20value%3D%22%22%20style%3D%22endArrow%3Dnone%3Bhtml%3D1%3Brounded%3D0%3B%22%20edge%3D%221%22%20parent%3D%221%22%3E%3CmxGeometry%20width%3D%2250%22%20height%3D%2250%22%20relative%3D%221%22%20as%3D%22geometry%22%3E%3CmxPoint%20x%3D%22460%22%20y%3D%22-10%22%20as%3D%22sourcePoint%22%2F%3E%3CmxPoint%20x%3D%22510%22%20y%3D%22-60%22%20as%3D%22targetPoint%22%2F%3E%3C%2FmxGeometry%3E%3C%2FmxCell%3E%3CmxCell%20id%3D%2224%22%20value%3D%22%22%20style%3D%22endArrow%3Dnone%3Bhtml%3D1%3Brounded%3D0%3B%22%20edge%3D%221%22%20parent%3D%221%22%3E%3CmxGeometry%20width%3D%2250%22%20height%3D%2250%22%20relative%3D%221%22%20as%3D%22geometry%22%3E%3CmxPoint%20x%3D%22470%22%20as%3D%22sourcePoint%22%2F%3E%3CmxPoint%20x%3D%22520%22%20y%3D%22-50%22%20as%3D%22targetPoint%22%2F%3E%3C%2FmxGeometry%3E%3C%2FmxCell%3E%3CmxCell%20id%3D%2225%22%20value%3D%22%22%20style%3D%22endArrow%3Dnone%3Bhtml%3D1%3Brounded%3D0%3B%22%20edge%3D%221%22%20parent%3D%221%22%3E%3CmxGeometry%20width%3D%2250%22%20height%3D%2250%22%20relative%3D%221%22%20as%3D%22geometry%22%3E%3CmxPoint%20x%3D%22450%22%20y%3D%22-20%22%20as%3D%22sourcePoint%22%2F%3E%3CmxPoint%20x%3D%22500%22%20y%3D%22-70%22%20as%3D%22targetPoint%22%2F%3E%3C%2FmxGeometry%3E%3C%2FmxCell%3E%3CmxCell%20id%3D%2226%22%20value%3D%22%22%20style%3D%22endArrow%3Dnone%3Bhtml%3D1%3Brounded%3D0%3B%22%20edge%3D%221%22%20parent%3D%221%22%3E%3CmxGeometry%20width%3D%2250%22%20height%3D%2250%22%20relative%3D%221%22%20as%3D%22geometry%22%3E%3CmxPoint%20x%3D%22460%22%20y%3D%22-10%22%20as%3D%22sourcePoint%22%2F%3E%3CmxPoint%20x%3D%22510%22%20y%3D%22-60%22%20as%3D%22targetPoint%22%2F%3E%3C%2FmxGeometry%3E%3C%2FmxCell%3E%3CmxCell%20id%3D%2227%22%20value%3D%22%22%20style%3D%22endArrow%3Dnone%3Bhtml%3D1%3Brounded%3D0%3B%22%20edge%3D%221%22%20parent%3D%221%22%3E%3CmxGeometry%20width%3D%2250%22%20height%3D%2250%22%20relative%3D%221%22%20as%3D%22geometry%22%3E%3CmxPoint%20x%3D%22470%22%20as%3D%22sourcePoint%22%2F%3E%3CmxPoint%20x%3D%22520%22%20y%3D%22-50%22%20as%3D%22targetPoint%22%2F%3E%3C%2FmxGeometry%3E%3C%2FmxCell%3E%3CmxCell%20id%3D%2228%22%20value%3D%22%22%20style%3D%22endArrow%3Dnone%3Bhtml%3D1%3Brounded%3D0%3B%22%20edge%3D%221%22%20parent%3D%221%22%3E%3CmxGeometry%20width%3D%2250%22%20height%3D%2250%22%20relative%3D%221%22%20as%3D%22geometry%22%3E%3CmxPoint%20x%3D%22450%22%20y%3D%22-20%22%20as%3D%22sourcePoint%22%2F%3E%3CmxPoint%20x%3D%22500%22%20y%3D%22-70%22%20as%3D%22targetPoint%22%2F%3E%3C%2FmxGeometry%3E%3C%2FmxCell%3E%3C%2Froot%3E%3C%2FmxGraphModel%3E&lt;/span&gt;DeliveryFee&amp;nbsp;" style="ellipse;whiteSpace=wrap;html=1;align=center;fontStyle=0" parent="1" vertex="1">
          <mxGeometry x="710" y="-260" width="100" height="40" as="geometry" />
        </mxCell>
        <mxCell id="d5mb9EzyclGPVEoklJ2P-3812" value="OrderValue " style="ellipse;whiteSpace=wrap;html=1;align=center;fontStyle=0" parent="1" vertex="1">
          <mxGeometry x="350" y="-220" width="100" height="40" as="geometry" />
        </mxCell>
        <mxCell id="d5mb9EzyclGPVEoklJ2P-3813" value="DeliveryLongitude " style="ellipse;whiteSpace=wrap;html=1;align=center;fontStyle=0" parent="1" vertex="1">
          <mxGeometry x="280" y="-170" width="120" height="40" as="geometry" />
        </mxCell>
        <mxCell id="d5mb9EzyclGPVEoklJ2P-3814" value="DeliveryLatitude " style="ellipse;whiteSpace=wrap;html=1;align=center;fontStyle=0" parent="1" vertex="1">
          <mxGeometry x="770" y="-220" width="120" height="40" as="geometry" />
        </mxCell>
        <mxCell id="d5mb9EzyclGPVEoklJ2P-3815" value="" style="endArrow=none;html=1;rounded=0;entryX=0.5;entryY=0;entryDx=0;entryDy=0;exitX=0.5;exitY=1;exitDx=0;exitDy=0;" parent="1" source="d5mb9EzyclGPVEoklJ2P-3817" target="d5mb9EzyclGPVEoklJ2P-3701" edge="1">
          <mxGeometry width="50" height="50" relative="1" as="geometry">
            <mxPoint x="620" y="-30" as="sourcePoint" />
            <mxPoint x="670" y="-80" as="targetPoint" />
          </mxGeometry>
        </mxCell>
        <mxCell id="d5mb9EzyclGPVEoklJ2P-3816" value="" style="endArrow=none;html=1;rounded=0;entryX=0.5;entryY=0;entryDx=0;entryDy=0;exitX=0.567;exitY=1.05;exitDx=0;exitDy=0;exitPerimeter=0;" parent="1" source="d5mb9EzyclGPVEoklJ2P-3813" target="d5mb9EzyclGPVEoklJ2P-3701" edge="1">
          <mxGeometry width="50" height="50" relative="1" as="geometry">
            <mxPoint x="590" y="-60" as="sourcePoint" />
            <mxPoint x="640" y="-110" as="targetPoint" />
          </mxGeometry>
        </mxCell>
        <mxCell id="d5mb9EzyclGPVEoklJ2P-3817" value="DeliveryAddress " style="ellipse;whiteSpace=wrap;html=1;align=center;fontStyle=0" parent="1" vertex="1">
          <mxGeometry x="160" y="-20" width="100" height="40" as="geometry" />
        </mxCell>
        <mxCell id="d5mb9EzyclGPVEoklJ2P-3818" value="CustomerPhoneNumber " style="ellipse;whiteSpace=wrap;html=1;align=center;fontStyle=0" parent="1" vertex="1">
          <mxGeometry x="500" y="-320" width="140" height="40" as="geometry" />
        </mxCell>
        <mxCell id="d5mb9EzyclGPVEoklJ2P-3819" value="CustomerName " style="ellipse;whiteSpace=wrap;html=1;align=center;fontStyle=0" parent="1" vertex="1">
          <mxGeometry x="650" y="-300" width="100" height="40" as="geometry" />
        </mxCell>
        <mxCell id="d5mb9EzyclGPVEoklJ2P-3820" value="&lt;b&gt;&lt;u&gt;Id&lt;/u&gt;&lt;/b&gt;" style="ellipse;whiteSpace=wrap;html=1;align=center;fontStyle=0" parent="1" vertex="1">
          <mxGeometry x="1010" y="30" width="100" height="40" as="geometry" />
        </mxCell>
        <mxCell id="d5mb9EzyclGPVEoklJ2P-3821" value="" style="endArrow=none;html=1;rounded=0;entryX=0.5;entryY=1;entryDx=0;entryDy=0;exitX=0.5;exitY=0;exitDx=0;exitDy=0;" parent="1" source="d5mb9EzyclGPVEoklJ2P-3701" target="d5mb9EzyclGPVEoklJ2P-3811" edge="1">
          <mxGeometry width="50" height="50" relative="1" as="geometry">
            <mxPoint x="850" y="-120" as="sourcePoint" />
            <mxPoint x="900" y="-170" as="targetPoint" />
          </mxGeometry>
        </mxCell>
        <mxCell id="d5mb9EzyclGPVEoklJ2P-3822" value="" style="endArrow=none;html=1;rounded=0;entryX=0.5;entryY=1;entryDx=0;entryDy=0;exitX=0.5;exitY=0;exitDx=0;exitDy=0;" parent="1" source="d5mb9EzyclGPVEoklJ2P-3701" target="d5mb9EzyclGPVEoklJ2P-3812" edge="1">
          <mxGeometry width="50" height="50" relative="1" as="geometry">
            <mxPoint x="590" y="-70" as="sourcePoint" />
            <mxPoint x="640" y="-120" as="targetPoint" />
          </mxGeometry>
        </mxCell>
        <mxCell id="d5mb9EzyclGPVEoklJ2P-3823" value="" style="endArrow=none;html=1;rounded=0;entryX=0.5;entryY=1;entryDx=0;entryDy=0;exitX=0.5;exitY=0;exitDx=0;exitDy=0;" parent="1" source="d5mb9EzyclGPVEoklJ2P-3701" target="d5mb9EzyclGPVEoklJ2P-3814" edge="1">
          <mxGeometry width="50" height="50" relative="1" as="geometry">
            <mxPoint x="590" y="-70" as="sourcePoint" />
            <mxPoint x="640" y="-120" as="targetPoint" />
          </mxGeometry>
        </mxCell>
        <mxCell id="d5mb9EzyclGPVEoklJ2P-3824" value="" style="endArrow=none;html=1;rounded=0;entryX=0.5;entryY=1;entryDx=0;entryDy=0;exitX=0.5;exitY=0;exitDx=0;exitDy=0;" parent="1" source="d5mb9EzyclGPVEoklJ2P-3701" target="d5mb9EzyclGPVEoklJ2P-3819" edge="1">
          <mxGeometry width="50" height="50" relative="1" as="geometry">
            <mxPoint x="610" y="-50" as="sourcePoint" />
            <mxPoint x="660" y="-100" as="targetPoint" />
          </mxGeometry>
        </mxCell>
        <mxCell id="d5mb9EzyclGPVEoklJ2P-3825" value="" style="endArrow=none;html=1;rounded=0;entryX=0.5;entryY=1;entryDx=0;entryDy=0;exitX=0.5;exitY=0;exitDx=0;exitDy=0;" parent="1" source="d5mb9EzyclGPVEoklJ2P-3701" target="d5mb9EzyclGPVEoklJ2P-3809" edge="1">
          <mxGeometry width="50" height="50" relative="1" as="geometry">
            <mxPoint x="830" y="-150" as="sourcePoint" />
            <mxPoint x="880" y="-200" as="targetPoint" />
          </mxGeometry>
        </mxCell>
        <mxCell id="d5mb9EzyclGPVEoklJ2P-3826" value="" style="endArrow=none;html=1;rounded=0;exitX=0.5;exitY=0;exitDx=0;exitDy=0;entryX=0.5;entryY=1;entryDx=0;entryDy=0;" parent="1" source="d5mb9EzyclGPVEoklJ2P-3701" target="d5mb9EzyclGPVEoklJ2P-3799" edge="1">
          <mxGeometry width="50" height="50" relative="1" as="geometry">
            <mxPoint x="930" as="sourcePoint" />
            <mxPoint x="980" y="-50" as="targetPoint" />
          </mxGeometry>
        </mxCell>
        <mxCell id="d5mb9EzyclGPVEoklJ2P-3827" value="" style="endArrow=none;html=1;rounded=0;exitX=0.5;exitY=0;exitDx=0;exitDy=0;entryX=0.5;entryY=1;entryDx=0;entryDy=0;" parent="1" source="d5mb9EzyclGPVEoklJ2P-3699" target="d5mb9EzyclGPVEoklJ2P-3831" edge="1">
          <mxGeometry width="50" height="50" relative="1" as="geometry">
            <mxPoint x="130" y="120" as="sourcePoint" />
            <mxPoint x="180" y="70" as="targetPoint" />
          </mxGeometry>
        </mxCell>
        <mxCell id="d5mb9EzyclGPVEoklJ2P-3828" value="CreatedAt " style="ellipse;whiteSpace=wrap;html=1;align=center;fontStyle=0" parent="1" vertex="1">
          <mxGeometry x="435" y="290" width="100" height="40" as="geometry" />
        </mxCell>
        <mxCell id="d5mb9EzyclGPVEoklJ2P-3829" value="Comment " style="ellipse;whiteSpace=wrap;html=1;align=center;fontStyle=0" parent="1" vertex="1">
          <mxGeometry x="590" y="290" width="100" height="40" as="geometry" />
        </mxCell>
        <mxCell id="d5mb9EzyclGPVEoklJ2P-3830" value="Stars" style="ellipse;whiteSpace=wrap;html=1;align=center;fontStyle=0" parent="1" vertex="1">
          <mxGeometry x="370" y="345" width="100" height="40" as="geometry" />
        </mxCell>
        <mxCell id="d5mb9EzyclGPVEoklJ2P-3831" value="&lt;b&gt;&lt;u&gt;Id&lt;/u&gt;&lt;/b&gt;" style="ellipse;whiteSpace=wrap;html=1;align=center;fontStyle=0" parent="1" vertex="1">
          <mxGeometry x="660" y="345" width="100" height="35" as="geometry" />
        </mxCell>
        <mxCell id="d5mb9EzyclGPVEoklJ2P-3832" value="" style="endArrow=none;html=1;rounded=0;entryX=0.5;entryY=1;entryDx=0;entryDy=0;exitX=0.5;exitY=0;exitDx=0;exitDy=0;" parent="1" source="d5mb9EzyclGPVEoklJ2P-3699" target="d5mb9EzyclGPVEoklJ2P-3828" edge="1">
          <mxGeometry width="50" height="50" relative="1" as="geometry">
            <mxPoint x="140" y="100" as="sourcePoint" />
            <mxPoint x="190" y="50" as="targetPoint" />
          </mxGeometry>
        </mxCell>
        <mxCell id="d5mb9EzyclGPVEoklJ2P-3833" value="" style="endArrow=none;html=1;rounded=0;entryX=0.5;entryY=1;entryDx=0;entryDy=0;exitX=0.5;exitY=0;exitDx=0;exitDy=0;" parent="1" source="d5mb9EzyclGPVEoklJ2P-3699" target="d5mb9EzyclGPVEoklJ2P-3829" edge="1">
          <mxGeometry width="50" height="50" relative="1" as="geometry">
            <mxPoint x="140" y="100" as="sourcePoint" />
            <mxPoint x="580" y="350" as="targetPoint" />
          </mxGeometry>
        </mxCell>
        <mxCell id="d5mb9EzyclGPVEoklJ2P-3834" value="" style="endArrow=none;html=1;rounded=0;entryX=0.5;entryY=1;entryDx=0;entryDy=0;exitX=0.5;exitY=0;exitDx=0;exitDy=0;" parent="1" source="d5mb9EzyclGPVEoklJ2P-3699" target="d5mb9EzyclGPVEoklJ2P-3830" edge="1">
          <mxGeometry width="50" height="50" relative="1" as="geometry">
            <mxPoint x="140" y="100" as="sourcePoint" />
            <mxPoint x="190" y="50" as="targetPoint" />
          </mxGeometry>
        </mxCell>
        <mxCell id="d5mb9EzyclGPVEoklJ2P-3835" value="MessageContent " style="ellipse;whiteSpace=wrap;html=1;align=center;fontStyle=0" parent="1" vertex="1">
          <mxGeometry x="105" y="1050" width="110" height="40" as="geometry" />
        </mxCell>
        <mxCell id="d5mb9EzyclGPVEoklJ2P-3836" value="" style="endArrow=none;html=1;rounded=0;entryX=0.577;entryY=0.994;entryDx=0;entryDy=0;entryPerimeter=0;exitX=0.5;exitY=0;exitDx=0;exitDy=0;" parent="1" source="d5mb9EzyclGPVEoklJ2P-3696" target="d5mb9EzyclGPVEoklJ2P-3835" edge="1">
          <mxGeometry width="50" height="50" relative="1" as="geometry">
            <mxPoint x="-270" y="1370" as="sourcePoint" />
            <mxPoint x="-220" y="1320" as="targetPoint" />
          </mxGeometry>
        </mxCell>
        <mxCell id="d5mb9EzyclGPVEoklJ2P-3837" value="CreatedAt " style="ellipse;whiteSpace=wrap;html=1;align=center;fontStyle=0" parent="1" vertex="1">
          <mxGeometry x="180" y="1090" width="100" height="40" as="geometry" />
        </mxCell>
        <mxCell id="d5mb9EzyclGPVEoklJ2P-3838" value="IsRead " style="ellipse;whiteSpace=wrap;html=1;align=center;fontStyle=0" parent="1" vertex="1">
          <mxGeometry x="-185" y="1110" width="100" height="40" as="geometry" />
        </mxCell>
        <mxCell id="d5mb9EzyclGPVEoklJ2P-3839" value="MessageType " style="ellipse;whiteSpace=wrap;html=1;align=center;fontStyle=0" parent="1" vertex="1">
          <mxGeometry x="-125" y="1050" width="100" height="40" as="geometry" />
        </mxCell>
        <mxCell id="d5mb9EzyclGPVEoklJ2P-3840" value="&lt;b&gt;&lt;u&gt;Id&lt;/u&gt;&lt;/b&gt;" style="ellipse;whiteSpace=wrap;html=1;align=center;fontStyle=0" parent="1" vertex="1">
          <mxGeometry x="-20" y="1020" width="100" height="40" as="geometry" />
        </mxCell>
        <mxCell id="d5mb9EzyclGPVEoklJ2P-3841" value="" style="endArrow=none;html=1;rounded=0;entryX=0.5;entryY=1;entryDx=0;entryDy=0;exitX=0.5;exitY=0;exitDx=0;exitDy=0;" parent="1" source="d5mb9EzyclGPVEoklJ2P-3696" target="d5mb9EzyclGPVEoklJ2P-3839" edge="1">
          <mxGeometry width="50" height="50" relative="1" as="geometry">
            <mxPoint x="-260" y="1360" as="sourcePoint" />
            <mxPoint x="-210" y="1310" as="targetPoint" />
          </mxGeometry>
        </mxCell>
        <mxCell id="d5mb9EzyclGPVEoklJ2P-3842" value="" style="endArrow=none;html=1;rounded=0;entryX=0.5;entryY=1;entryDx=0;entryDy=0;exitX=0.5;exitY=0;exitDx=0;exitDy=0;" parent="1" source="d5mb9EzyclGPVEoklJ2P-3696" target="d5mb9EzyclGPVEoklJ2P-3838" edge="1">
          <mxGeometry width="50" height="50" relative="1" as="geometry">
            <mxPoint x="-270" y="1350" as="sourcePoint" />
            <mxPoint x="-220" y="1300" as="targetPoint" />
          </mxGeometry>
        </mxCell>
        <mxCell id="d5mb9EzyclGPVEoklJ2P-3843" value="" style="endArrow=none;html=1;rounded=0;entryX=0.5;entryY=1;entryDx=0;entryDy=0;exitX=0.5;exitY=0;exitDx=0;exitDy=0;" parent="1" source="d5mb9EzyclGPVEoklJ2P-3696" target="d5mb9EzyclGPVEoklJ2P-3840" edge="1">
          <mxGeometry width="50" height="50" relative="1" as="geometry">
            <mxPoint x="-270" y="1350" as="sourcePoint" />
            <mxPoint x="-220" y="1300" as="targetPoint" />
          </mxGeometry>
        </mxCell>
        <mxCell id="d5mb9EzyclGPVEoklJ2P-3844" value="" style="endArrow=none;html=1;rounded=0;entryX=0.5;entryY=1;entryDx=0;entryDy=0;exitX=0.5;exitY=0;exitDx=0;exitDy=0;" parent="1" source="d5mb9EzyclGPVEoklJ2P-3696" target="d5mb9EzyclGPVEoklJ2P-3837" edge="1">
          <mxGeometry width="50" height="50" relative="1" as="geometry">
            <mxPoint x="-280" y="1340" as="sourcePoint" />
            <mxPoint x="-230" y="1290" as="targetPoint" />
          </mxGeometry>
        </mxCell>
        <mxCell id="d5mb9EzyclGPVEoklJ2P-3845" value="CreatedAt  " style="ellipse;whiteSpace=wrap;html=1;align=center;fontStyle=0" parent="1" vertex="1">
          <mxGeometry x="490" y="490" width="100" height="40" as="geometry" />
        </mxCell>
        <mxCell id="d5mb9EzyclGPVEoklJ2P-3846" value="LastLoginAt  " style="ellipse;whiteSpace=wrap;html=1;align=center;fontStyle=0" parent="1" vertex="1">
          <mxGeometry x="550" y="530" width="100" height="40" as="geometry" />
        </mxCell>
        <mxCell id="d5mb9EzyclGPVEoklJ2P-3847" value="" style="endArrow=none;html=1;rounded=0;entryX=0.5;entryY=1;entryDx=0;entryDy=0;exitX=0.5;exitY=0;exitDx=0;exitDy=0;" parent="1" source="d5mb9EzyclGPVEoklJ2P-3695" target="d5mb9EzyclGPVEoklJ2P-3845" edge="1">
          <mxGeometry width="50" height="50" relative="1" as="geometry">
            <mxPoint x="670" y="780" as="sourcePoint" />
            <mxPoint x="480" y="760" as="targetPoint" />
          </mxGeometry>
        </mxCell>
        <mxCell id="d5mb9EzyclGPVEoklJ2P-3848" value="" style="endArrow=none;html=1;rounded=0;entryX=0.5;entryY=1;entryDx=0;entryDy=0;exitX=0.5;exitY=0;exitDx=0;exitDy=0;" parent="1" source="d5mb9EzyclGPVEoklJ2P-3695" target="d5mb9EzyclGPVEoklJ2P-3846" edge="1">
          <mxGeometry width="50" height="50" relative="1" as="geometry">
            <mxPoint x="560" y="870" as="sourcePoint" />
            <mxPoint x="490" y="770" as="targetPoint" />
          </mxGeometry>
        </mxCell>
        <mxCell id="d5mb9EzyclGPVEoklJ2P-3849" value="StoreAddress  " style="ellipse;whiteSpace=wrap;html=1;align=center;fontStyle=0" parent="1" vertex="1">
          <mxGeometry x="1410" y="240" width="100" height="40" as="geometry" />
        </mxCell>
        <mxCell id="d5mb9EzyclGPVEoklJ2P-3850" value="" style="endArrow=none;html=1;rounded=0;entryX=0.5;entryY=1;entryDx=0;entryDy=0;exitX=0.5;exitY=0;exitDx=0;exitDy=0;" parent="1" source="d5mb9EzyclGPVEoklJ2P-3700" target="d5mb9EzyclGPVEoklJ2P-3849" edge="1">
          <mxGeometry width="50" height="50" relative="1" as="geometry">
            <mxPoint x="1410" y="520" as="sourcePoint" />
            <mxPoint x="1355" y="390" as="targetPoint" />
          </mxGeometry>
        </mxCell>
        <mxCell id="d5mb9EzyclGPVEoklJ2P-3851" value="LastActivityAt " style="ellipse;whiteSpace=wrap;html=1;align=center;fontStyle=0" parent="1" vertex="1">
          <mxGeometry x="700" y="1110" width="120" height="40" as="geometry" />
        </mxCell>
        <mxCell id="d5mb9EzyclGPVEoklJ2P-3852" value="" style="endArrow=none;html=1;rounded=0;entryX=0.5;entryY=1;entryDx=0;entryDy=0;exitX=0.5;exitY=0;exitDx=0;exitDy=0;" parent="1" source="d5mb9EzyclGPVEoklJ2P-3698" target="d5mb9EzyclGPVEoklJ2P-3851" edge="1">
          <mxGeometry width="50" height="50" relative="1" as="geometry">
            <mxPoint x="945.0000000000001" y="1170" as="sourcePoint" />
            <mxPoint x="905" y="1130" as="targetPoint" />
          </mxGeometry>
        </mxCell>
        <mxCell id="d5mb9EzyclGPVEoklJ2P-3853" value="PickedUpAt&amp;nbsp;" style="ellipse;whiteSpace=wrap;html=1;align=center;fontStyle=0" parent="1" vertex="1">
          <mxGeometry x="980" y="-20" width="100" height="40" as="geometry" />
        </mxCell>
        <mxCell id="d5mb9EzyclGPVEoklJ2P-3854" value="" style="endArrow=none;html=1;rounded=0;exitX=0.5;exitY=0;exitDx=0;exitDy=0;entryX=0.5;entryY=1;entryDx=0;entryDy=0;" parent="1" source="d5mb9EzyclGPVEoklJ2P-3701" target="d5mb9EzyclGPVEoklJ2P-3853" edge="1">
          <mxGeometry width="50" height="50" relative="1" as="geometry">
            <mxPoint x="580" y="140" as="sourcePoint" />
            <mxPoint x="750" y="120" as="targetPoint" />
          </mxGeometry>
        </mxCell>
        <mxCell id="lcqjdDuSJG5RwVw1PZ8H-1" value="dateOfBirth" style="ellipse;whiteSpace=wrap;html=1;align=center;fontStyle=0" parent="1" vertex="1">
          <mxGeometry x="800" y="690" width="100" height="40" as="geometry" />
        </mxCell>
        <mxCell id="lcqjdDuSJG5RwVw1PZ8H-2" value="" style="endArrow=none;html=1;rounded=0;entryX=0.5;entryY=1;entryDx=0;entryDy=0;exitX=0.5;exitY=0;exitDx=0;exitDy=0;" parent="1" source="d5mb9EzyclGPVEoklJ2P-3695" target="lcqjdDuSJG5RwVw1PZ8H-1" edge="1">
          <mxGeometry width="50" height="50" relative="1" as="geometry">
            <mxPoint x="550" y="860" as="sourcePoint" />
            <mxPoint x="570" y="740" as="targetPoint" />
          </mxGeometry>
        </mxCell>
        <mxCell id="lcqjdDuSJG5RwVw1PZ8H-4" value="StoreLatitude " style="ellipse;whiteSpace=wrap;html=1;align=center;fontStyle=0" parent="1" vertex="1">
          <mxGeometry x="1200" y="280" width="100" height="40" as="geometry" />
        </mxCell>
        <mxCell id="lcqjdDuSJG5RwVw1PZ8H-5" value="StoreLongitude   " style="ellipse;whiteSpace=wrap;html=1;align=center;fontStyle=0" parent="1" vertex="1">
          <mxGeometry x="1280" y="240" width="100" height="40" as="geometry" />
        </mxCell>
        <mxCell id="lcqjdDuSJG5RwVw1PZ8H-6" value="" style="endArrow=none;html=1;rounded=0;entryX=0.5;entryY=1;entryDx=0;entryDy=0;exitX=0.5;exitY=0;exitDx=0;exitDy=0;" parent="1" source="d5mb9EzyclGPVEoklJ2P-3700" target="lcqjdDuSJG5RwVw1PZ8H-5" edge="1">
          <mxGeometry width="50" height="50" relative="1" as="geometry">
            <mxPoint x="1410" y="520" as="sourcePoint" />
            <mxPoint x="1463" y="340" as="targetPoint" />
          </mxGeometry>
        </mxCell>
        <mxCell id="lcqjdDuSJG5RwVw1PZ8H-7" value="" style="endArrow=none;html=1;rounded=0;entryX=0.5;entryY=1;entryDx=0;entryDy=0;exitX=0.5;exitY=0;exitDx=0;exitDy=0;" parent="1" source="d5mb9EzyclGPVEoklJ2P-3700" target="lcqjdDuSJG5RwVw1PZ8H-4" edge="1">
          <mxGeometry width="50" height="50" relative="1" as="geometry">
            <mxPoint x="1410" y="520" as="sourcePoint" />
            <mxPoint x="1340" y="330" as="targetPoint" />
          </mxGeometry>
        </mxCell>
        <mxCell id="lcqjdDuSJG5RwVw1PZ8H-8" value="Rating " style="ellipse;whiteSpace=wrap;html=1;align=center;fontStyle=0" parent="1" vertex="1">
          <mxGeometry x="1130" y="382.5" width="100" height="40" as="geometry" />
        </mxCell>
        <mxCell id="lcqjdDuSJG5RwVw1PZ8H-9" value="PersonalPhotoUrl" style="ellipse;whiteSpace=wrap;html=1;align=center;fontStyle=0" parent="1" vertex="1">
          <mxGeometry x="240" y="670" width="115" height="40" as="geometry" />
        </mxCell>
        <mxCell id="lcqjdDuSJG5RwVw1PZ8H-10" value="" style="endArrow=none;html=1;rounded=0;entryX=0.5;entryY=1;entryDx=0;entryDy=0;exitX=0.5;exitY=0;exitDx=0;exitDy=0;" parent="1" source="d5mb9EzyclGPVEoklJ2P-3695" target="lcqjdDuSJG5RwVw1PZ8H-9" edge="1">
          <mxGeometry width="50" height="50" relative="1" as="geometry">
            <mxPoint x="550" y="860" as="sourcePoint" />
            <mxPoint x="480" y="760" as="targetPoint" />
          </mxGeometry>
        </mxCell>
        <mxCell id="lcqjdDuSJG5RwVw1PZ8H-11" value="NationalIdFrontPhotoUrl" style="ellipse;whiteSpace=wrap;html=1;align=center;fontStyle=0" parent="1" vertex="1">
          <mxGeometry x="740" y="650" width="140" height="40" as="geometry" />
        </mxCell>
        <mxCell id="lcqjdDuSJG5RwVw1PZ8H-12" value="" style="endArrow=none;html=1;rounded=0;entryX=0.5;entryY=1;entryDx=0;entryDy=0;exitX=0.5;exitY=0;exitDx=0;exitDy=0;" parent="1" source="d5mb9EzyclGPVEoklJ2P-3695" target="lcqjdDuSJG5RwVw1PZ8H-11" edge="1">
          <mxGeometry width="50" height="50" relative="1" as="geometry">
            <mxPoint x="550" y="860" as="sourcePoint" />
            <mxPoint x="670" y="710" as="targetPoint" />
          </mxGeometry>
        </mxCell>
        <mxCell id="lcqjdDuSJG5RwVw1PZ8H-13" value="NationalIdBackPhotoUrl" style="ellipse;whiteSpace=wrap;html=1;align=center;fontStyle=0" parent="1" vertex="1">
          <mxGeometry x="670" y="610" width="140" height="40" as="geometry" />
        </mxCell>
        <mxCell id="lcqjdDuSJG5RwVw1PZ8H-14" value="" style="endArrow=none;html=1;rounded=0;entryX=0.5;entryY=1;entryDx=0;entryDy=0;exitX=0.5;exitY=0;exitDx=0;exitDy=0;" parent="1" source="d5mb9EzyclGPVEoklJ2P-3695" target="lcqjdDuSJG5RwVw1PZ8H-13" edge="1">
          <mxGeometry width="50" height="50" relative="1" as="geometry">
            <mxPoint x="550" y="860" as="sourcePoint" />
            <mxPoint x="530" y="710" as="targetPoint" />
          </mxGeometry>
        </mxCell>
        <mxCell id="lcqjdDuSJG5RwVw1PZ8H-15" value="NationalIdNumber " style="ellipse;whiteSpace=wrap;html=1;align=center;fontStyle=0" parent="1" vertex="1">
          <mxGeometry x="600" y="570" width="130" height="40" as="geometry" />
        </mxCell>
        <mxCell id="lcqjdDuSJG5RwVw1PZ8H-16" value="" style="endArrow=none;html=1;rounded=0;entryX=0.5;entryY=1;entryDx=0;entryDy=0;exitX=0.5;exitY=0;exitDx=0;exitDy=0;" parent="1" source="d5mb9EzyclGPVEoklJ2P-3695" target="lcqjdDuSJG5RwVw1PZ8H-15" edge="1">
          <mxGeometry width="50" height="50" relative="1" as="geometry">
            <mxPoint x="550" y="860" as="sourcePoint" />
            <mxPoint x="405" y="720.0000000000002" as="targetPoint" />
          </mxGeometry>
        </mxCell>
        <mxCell id="lcqjdDuSJG5RwVw1PZ8H-18" value="VehicleBrand " style="ellipse;whiteSpace=wrap;html=1;align=center;fontStyle=0" parent="1" vertex="1">
          <mxGeometry x="-1080" y="120" width="120" height="40" as="geometry" />
        </mxCell>
        <mxCell id="lcqjdDuSJG5RwVw1PZ8H-19" value="EfragPhotoUrl" style="ellipse;whiteSpace=wrap;html=1;align=center;fontStyle=0" parent="1" vertex="1">
          <mxGeometry x="-1040" y="60" width="130" height="40" as="geometry" />
        </mxCell>
        <mxCell id="lcqjdDuSJG5RwVw1PZ8H-20" value="VehicleIssueDate " style="ellipse;whiteSpace=wrap;html=1;align=center;fontStyle=0" parent="1" vertex="1">
          <mxGeometry x="-990" y="10" width="130" height="40" as="geometry" />
        </mxCell>
        <mxCell id="lcqjdDuSJG5RwVw1PZ8H-21" value="ResidenceProvince  " style="ellipse;whiteSpace=wrap;html=1;align=center;fontStyle=0" parent="1" vertex="1">
          <mxGeometry x="-200" y="210" width="130" height="40" as="geometry" />
        </mxCell>
        <mxCell id="lcqjdDuSJG5RwVw1PZ8H-22" value="ResidenceCity" style="ellipse;whiteSpace=wrap;html=1;align=center;fontStyle=0" parent="1" vertex="1">
          <mxGeometry x="-615" y="137.5" width="130" height="40" as="geometry" />
        </mxCell>
        <mxCell id="lcqjdDuSJG5RwVw1PZ8H-23" value="ResidenceStreet" style="ellipse;whiteSpace=wrap;html=1;align=center;fontStyle=0" parent="1" vertex="1">
          <mxGeometry x="-140" y="260" width="130" height="40" as="geometry" />
        </mxCell>
        <mxCell id="lcqjdDuSJG5RwVw1PZ8H-24" value="ResidenceBuildingNumber" style="ellipse;whiteSpace=wrap;html=1;align=center;fontStyle=0" parent="1" vertex="1">
          <mxGeometry x="-510" y="190" width="150" height="40" as="geometry" />
        </mxCell>
        <mxCell id="lcqjdDuSJG5RwVw1PZ8H-25" value="ResidenceLatitude" style="ellipse;whiteSpace=wrap;html=1;align=center;fontStyle=0" parent="1" vertex="1">
          <mxGeometry x="-870" y="40" width="150" height="40" as="geometry" />
        </mxCell>
        <mxCell id="lcqjdDuSJG5RwVw1PZ8H-26" value="ResidenceLongitude " style="ellipse;whiteSpace=wrap;html=1;align=center;fontStyle=0" parent="1" vertex="1">
          <mxGeometry x="-740" y="80" width="150" height="40" as="geometry" />
        </mxCell>
        <mxCell id="lcqjdDuSJG5RwVw1PZ8H-27" value="CurrentLongitude  " style="ellipse;whiteSpace=wrap;html=1;align=center;fontStyle=0" parent="1" vertex="1">
          <mxGeometry x="-1120" y="190" width="150" height="40" as="geometry" />
        </mxCell>
        <mxCell id="lcqjdDuSJG5RwVw1PZ8H-28" value="CurrentLatitude " style="ellipse;whiteSpace=wrap;html=1;align=center;fontStyle=0" parent="1" vertex="1">
          <mxGeometry x="-1150" y="260" width="150" height="40" as="geometry" />
        </mxCell>
        <mxCell id="lcqjdDuSJG5RwVw1PZ8H-29" value="" style="endArrow=none;html=1;rounded=0;exitX=0.5;exitY=0;exitDx=0;exitDy=0;entryX=0.5;entryY=1;entryDx=0;entryDy=0;" parent="1" source="d5mb9EzyclGPVEoklJ2P-3697" target="lcqjdDuSJG5RwVw1PZ8H-28" edge="1">
          <mxGeometry width="50" height="50" relative="1" as="geometry">
            <mxPoint x="-330" y="510" as="sourcePoint" />
            <mxPoint x="-500" y="480" as="targetPoint" />
          </mxGeometry>
        </mxCell>
        <mxCell id="lcqjdDuSJG5RwVw1PZ8H-30" value="" style="endArrow=none;html=1;rounded=0;entryX=0.5;entryY=1;entryDx=0;entryDy=0;exitX=0.5;exitY=0;exitDx=0;exitDy=0;" parent="1" source="d5mb9EzyclGPVEoklJ2P-3697" target="lcqjdDuSJG5RwVw1PZ8H-27" edge="1">
          <mxGeometry width="50" height="50" relative="1" as="geometry">
            <mxPoint x="-470" y="530" as="sourcePoint" />
            <mxPoint x="-625" y="455" as="targetPoint" />
          </mxGeometry>
        </mxCell>
        <mxCell id="lcqjdDuSJG5RwVw1PZ8H-31" value="" style="endArrow=none;html=1;rounded=0;entryX=0.5;entryY=1;entryDx=0;entryDy=0;exitX=0.5;exitY=0;exitDx=0;exitDy=0;" parent="1" source="d5mb9EzyclGPVEoklJ2P-3697" target="lcqjdDuSJG5RwVw1PZ8H-25" edge="1">
          <mxGeometry width="50" height="50" relative="1" as="geometry">
            <mxPoint x="-340" y="500" as="sourcePoint" />
            <mxPoint x="-625" y="400" as="targetPoint" />
          </mxGeometry>
        </mxCell>
        <mxCell id="lcqjdDuSJG5RwVw1PZ8H-32" value="" style="endArrow=none;html=1;rounded=0;entryX=0.5;entryY=1;entryDx=0;entryDy=0;exitX=0.5;exitY=0;exitDx=0;exitDy=0;" parent="1" source="d5mb9EzyclGPVEoklJ2P-3697" target="lcqjdDuSJG5RwVw1PZ8H-18" edge="1">
          <mxGeometry width="50" height="50" relative="1" as="geometry">
            <mxPoint x="-330" y="510" as="sourcePoint" />
            <mxPoint x="-565" y="350" as="targetPoint" />
          </mxGeometry>
        </mxCell>
        <mxCell id="lcqjdDuSJG5RwVw1PZ8H-33" value="" style="endArrow=none;html=1;rounded=0;entryX=0.5;entryY=1;entryDx=0;entryDy=0;exitX=0.5;exitY=0;exitDx=0;exitDy=0;" parent="1" source="d5mb9EzyclGPVEoklJ2P-3697" target="lcqjdDuSJG5RwVw1PZ8H-19" edge="1">
          <mxGeometry width="50" height="50" relative="1" as="geometry">
            <mxPoint x="-330" y="510" as="sourcePoint" />
            <mxPoint x="-490" y="435" as="targetPoint" />
          </mxGeometry>
        </mxCell>
        <mxCell id="lcqjdDuSJG5RwVw1PZ8H-34" value="" style="endArrow=none;html=1;rounded=0;entryX=0.5;entryY=1;entryDx=0;entryDy=0;exitX=0.5;exitY=0;exitDx=0;exitDy=0;" parent="1" source="d5mb9EzyclGPVEoklJ2P-3697" target="lcqjdDuSJG5RwVw1PZ8H-20" edge="1">
          <mxGeometry width="50" height="50" relative="1" as="geometry">
            <mxPoint x="-330" y="510" as="sourcePoint" />
            <mxPoint x="-485" y="390" as="targetPoint" />
          </mxGeometry>
        </mxCell>
        <mxCell id="lcqjdDuSJG5RwVw1PZ8H-35" value="" style="endArrow=none;html=1;rounded=0;entryX=0.5;entryY=1;entryDx=0;entryDy=0;exitX=0.5;exitY=0;exitDx=0;exitDy=0;" parent="1" source="d5mb9EzyclGPVEoklJ2P-3697" target="lcqjdDuSJG5RwVw1PZ8H-26" edge="1">
          <mxGeometry width="50" height="50" relative="1" as="geometry">
            <mxPoint x="-330" y="510" as="sourcePoint" />
            <mxPoint x="-415" y="350" as="targetPoint" />
          </mxGeometry>
        </mxCell>
        <mxCell id="lcqjdDuSJG5RwVw1PZ8H-36" value="" style="endArrow=none;html=1;rounded=0;entryX=0.5;entryY=1;entryDx=0;entryDy=0;exitX=0.5;exitY=0;exitDx=0;exitDy=0;" parent="1" source="d5mb9EzyclGPVEoklJ2P-3697" target="lcqjdDuSJG5RwVw1PZ8H-22" edge="1">
          <mxGeometry width="50" height="50" relative="1" as="geometry">
            <mxPoint x="-330" y="510" as="sourcePoint" />
            <mxPoint x="-555" y="300" as="targetPoint" />
          </mxGeometry>
        </mxCell>
        <mxCell id="lcqjdDuSJG5RwVw1PZ8H-37" value="" style="endArrow=none;html=1;rounded=0;entryX=0.5;entryY=1;entryDx=0;entryDy=0;exitX=0.5;exitY=0;exitDx=0;exitDy=0;" parent="1" source="d5mb9EzyclGPVEoklJ2P-3697" target="lcqjdDuSJG5RwVw1PZ8H-24" edge="1">
          <mxGeometry width="50" height="50" relative="1" as="geometry">
            <mxPoint x="-330" y="510" as="sourcePoint" />
            <mxPoint x="-405" y="310" as="targetPoint" />
          </mxGeometry>
        </mxCell>
        <mxCell id="lcqjdDuSJG5RwVw1PZ8H-38" value="" style="endArrow=none;html=1;rounded=0;entryX=0.5;entryY=1;entryDx=0;entryDy=0;exitX=0.5;exitY=0;exitDx=0;exitDy=0;" parent="1" source="d5mb9EzyclGPVEoklJ2P-3697" target="lcqjdDuSJG5RwVw1PZ8H-21" edge="1">
          <mxGeometry width="50" height="50" relative="1" as="geometry">
            <mxPoint x="-330" y="510" as="sourcePoint" />
            <mxPoint x="-415" y="270" as="targetPoint" />
          </mxGeometry>
        </mxCell>
        <mxCell id="lcqjdDuSJG5RwVw1PZ8H-39" value="" style="endArrow=none;html=1;rounded=0;entryX=0.5;entryY=1;entryDx=0;entryDy=0;exitX=0.5;exitY=0;exitDx=0;exitDy=0;" parent="1" source="d5mb9EzyclGPVEoklJ2P-3697" target="lcqjdDuSJG5RwVw1PZ8H-23" edge="1">
          <mxGeometry width="50" height="50" relative="1" as="geometry">
            <mxPoint x="-330" y="510" as="sourcePoint" />
            <mxPoint x="-270" y="335" as="targetPoint" />
          </mxGeometry>
        </mxCell>
        <mxCell id="i74WXMRxZii70deNXKSU-1" value="&lt;b&gt;&lt;u&gt;Id&lt;/u&gt;&lt;/b&gt;" style="ellipse;whiteSpace=wrap;html=1;align=center;fontStyle=0" vertex="1" parent="1">
          <mxGeometry x="810" y="740" width="100" height="40" as="geometry" />
        </mxCell>
        <mxCell id="i74WXMRxZii70deNXKSU-2" value="" style="endArrow=none;html=1;rounded=0;entryX=0.5;entryY=1;entryDx=0;entryDy=0;exitX=0.5;exitY=0;exitDx=0;exitDy=0;" edge="1" parent="1" source="d5mb9EzyclGPVEoklJ2P-3695" target="i74WXMRxZii70deNXKSU-1">
          <mxGeometry width="50" height="50" relative="1" as="geometry">
            <mxPoint x="550" y="860" as="sourcePoint" />
            <mxPoint x="610" y="830" as="targetPoint" />
          </mxGeometry>
        </mxCell>
        <mxCell id="i74WXMRxZii70deNXKSU-5" value="ResidenceDistrict   " style="ellipse;whiteSpace=wrap;html=1;align=center;fontStyle=0" vertex="1" parent="1">
          <mxGeometry x="-90" y="310" width="130" height="40" as="geometry" />
        </mxCell>
        <mxCell id="i74WXMRxZii70deNXKSU-6" value="" style="endArrow=none;html=1;rounded=0;entryX=0.5;entryY=1;entryDx=0;entryDy=0;exitX=0.5;exitY=0;exitDx=0;exitDy=0;" edge="1" parent="1" source="d5mb9EzyclGPVEoklJ2P-3697" target="i74WXMRxZii70deNXKSU-5">
          <mxGeometry width="50" height="50" relative="1" as="geometry">
            <mxPoint x="-330" y="510" as="sourcePoint" />
            <mxPoint x="-260" y="420" as="targetPoint" />
          </mxGeometry>
        </mxCell>
        <mxCell id="i74WXMRxZii70deNXKSU-8" value="&lt;span style=&quot;text-align: left;&quot;&gt;BusinessLicenseNumber&lt;/span&gt;" style="ellipse;whiteSpace=wrap;html=1;align=center;fontStyle=0" vertex="1" parent="1">
          <mxGeometry x="1467.63" y="280" width="142.37" height="40" as="geometry" />
        </mxCell>
        <mxCell id="i74WXMRxZii70deNXKSU-9" value="" style="endArrow=none;html=1;rounded=0;entryX=0.5;entryY=1;entryDx=0;entryDy=0;exitX=0.5;exitY=0;exitDx=0;exitDy=0;" edge="1" parent="1" source="d5mb9EzyclGPVEoklJ2P-3700" target="i74WXMRxZii70deNXKSU-8">
          <mxGeometry width="50" height="50" relative="1" as="geometry">
            <mxPoint x="1410" y="520" as="sourcePoint" />
            <mxPoint x="1463" y="340" as="targetPoint" />
          </mxGeometry>
        </mxCell>
        <mxCell id="i74WXMRxZii70deNXKSU-11" value="StorePhotoUrl" style="ellipse;whiteSpace=wrap;html=1;align=center;fontStyle=0" vertex="1" parent="1">
          <mxGeometry x="1155" y="325" width="100" height="40" as="geometry" />
        </mxCell>
      </root>
    </mxGraphModel>
  </diagram>
</mxfile>
